<?xml version="1.0" encoding="utf-8"?>
<!-- Generator: Adobe Illustrator 13.0.0, SVG Export Plug-In . SVG Version: 6.00 Build 14948)  -->
<!DOCTYPE svg PUBLIC "-//W3C//DTD SVG 1.1//EN" "http://www.w3.org/Graphics/SVG/1.1/DTD/svg11.dtd">
<svg version="1.1" id="Layer_1" xmlns="http://www.w3.org/2000/svg" xmlns:xlink="http://www.w3.org/1999/xlink" x="0px" y="0px"
	 width="121.68px" height="45.6px" viewBox="0 0 121.68 45.6" enable-background="new 0 0 121.68 45.6" xml:space="preserve">
<g>
	<g>
		<path fill-rule="evenodd" clip-rule="evenodd" d="M47.76,23.52c0-0.08,0-0.16,0-0.24c-0.655-0.869-0.28,1.301-1.44,0.72
			c-0.317-0.601,0.949-0.751,0.24-0.96c0.015-0.308,0.313-0.324,0.48-0.48c0.17-0.16,0.332-0.301,0.48-0.48
			c-0.372-0.492-0.372-2.148,0-2.64c-0.454-0.054-0.53,0.271-0.96,0.24c0.041,0.359-0.086,0.886,0.24,0.96
			c0.026,0.365-0.644,0.237-0.72,0.48c-0.083,0.264,0.414,0.382,0.24,0.72c-0.051,0.099-0.438-0.272-0.48-0.24
			c0.755,1.494-0.193,2.958-0.24,3.84c-0.011,0.212-0.228,0.188-0.24,0.239c-0.072,0.301,0.084,0.664,0,0.96
			c-0.106,0.375-0.273,0.709-0.48,0.96c0.051,0.27,0.267,0.374,0.48,0.48c-0.053,0.187-0.201,0.279-0.48,0.24
			c-0.147-0.35-0.29,0.024,0,0c0.682,0.774,2.313,0.419,2.64-0.48c0.374,0.063,0.167,0.526,0,0.72
			c0.946,0.066,0.734-1.025,1.68-0.96c0.014-1.586,0.935-2.265,1.44-3.359c-0.058-0.619-0.413,0.329-0.96,0
			c-0.677,0.043-0.299,1.141-1.2,0.96c-0.049-1.01,0.912-1.008,0.96-1.92c0.678,0.199,0.622-0.338,1.2-0.24
			c0.29-0.051,0.147-0.267,0-0.48c0.557,0.077,0.921-0.039,1.2-0.24c-0.038-0.282,0.042-0.681-0.24-0.72
			c0.54-0.66,1.698-0.702,2.4-1.2c0.315,0.058,0.119-0.34,0.24-0.48c0.139-0.16,0.686,0.03,0.48-0.48
			c1.472,0.033,1.432-1.448,2.16-2.16c0.187-0.054,0.474-0.006,0.48-0.24c0.56,0,1.12,0,1.68,0c0.307-0.013,0.333-0.308,0.72-0.24
			c0.291,0.129,0.149-0.428,0.24-0.48c0.113-0.064,0.352,0.032,0.48,0c0.651-0.163,1.74-0.552,2.16-0.72
			c0.059-0.023,0.177,0.003,0.24,0c0.23-0.012,0.166-0.218,0.24-0.24c0.938-0.283,2.06-0.488,2.64-0.72
			c0.059-0.023,0.177,0.003,0.24,0c0.217-0.012,0.183-0.226,0.24-0.24c0.92-0.233,1.513-0.139,2.16-0.24
			c0.559-0.087,2.573-0.748,2.399,0.24c-1.292-0.451-2.544,0.486-3.84,0.72c-0.444,0.08-0.731-0.249-0.96-0.24
			c-0.229,0.009-0.439,0.155-0.72,0.24c-0.826,0.251-1.505,0.4-2.16,0.72c0.175,0.545,0.722,0.718,1.2,0.96
			c0.623-0.631-0.388-0.188-0.24-0.96c0.307-0.013,0.332-0.308,0.72-0.24c-0.032,0.566,0.368-0.221,0.24-0.24
			c0.31,0.045,0.218,0.446,0.479,0.48c0.243,0.032,1.022-0.103,1.681-0.24c0.498-0.104,1.18-0.402,1.68-0.48
			c1.866-0.291,3.118-0.177,4.8,0c0.098,0.462,0.931,0.189,0.721,0.96c0.462-0.098,0.189-0.931,0.96-0.72
			c-0.072,0.472,0.323,0.476,0.479,0.72c0.866-0.404,1.714,0.262,2.4,0.72c1.403-0.196,1.213-1.986,2.16-2.64
			c-0.055-0.197-0.262-0.469-0.48-0.48c-0.24-0.013-0.546-0.347-0.72-0.48c-0.201-0.154-0.309-0.305-0.48-0.48
			c-0.001-0.192,0.434-0.375,0.721-0.24c0.049,0.023-0.027,0.42,0,0.48c0.017,0.037,0.434,0.206,0.479,0.24
			c0.491,0.359,0.849,0.944,1.44,0.96c-0.236,0.324-0.641,0.479-0.96,0.72c0.013,0.413-0.186,0.615-0.48,0.72
			c0.62,1.006-0.65,0.742-0.479,1.92c-1.229,0.108-1.667-0.573-2.641-0.72c-0.396,0.004-0.134,0.666-0.479,0.72
			c0.347,0.373,0.505,0.935,0.72,1.44c0.241,0.479,1.062,0.379,0.96,1.2c-0.75,0.629-1.498-0.279-2.16-0.48
			c-0.443,0.036-0.147,0.813-0.479,0.96c-1.448,0.248-1.822-0.579-2.16-1.44c-1.073,0.568-0.508,1.071-0.48,2.16
			c-0.656-0.269-0.632-2.073-0.239-2.64c1.212-0.172,1.258,0.821,1.92,1.2c0.755,0.275,0.583-0.377,0.96-0.48
			c0.591-0.032,1.156-0.036,1.439,0.24c-0.105-0.694-0.506-1.094-1.2-1.2c-0.097-0.943-1.055-1.025-1.199-1.92
			c-0.637-0.004-1.413,0.133-1.44-0.48c1.058,0.044,0.068-0.945,0,0c-2.063-0.333-3.983-0.081-5.52,0
			c-0.191,0.01-0.217,0.236-0.24,0.24c-1.024,0.177-1.773-0.034-1.92,0.72c0.218,0.502,0.708,0.731,1.439,0.72
			c0.249,0.632,0.952,0.809,1.2,1.44c2.016-0.016,2.537,1.463,4.08,1.92c0.189,0.911,0.694,1.345,0.96,1.92
			c0.061,0.131,0.234,0.368,0.24,0.48c0.012,0.233,0.216,0.162,0.24,0.24c0.087,0.278-0.031,0.668,0,0.96
			c0.068,0.662,0.204,1.005,0.239,1.681c0.007,0.132,0.241,0.292,0.24,0.239c0.005,0.364-0.164,1.056-0.24,1.44
			c-0.199,1.014-0.567,2.033-0.479,3.12c-0.853,0.588-1.021,1.86-1.44,2.88c0.177,0.472,0.614,0.024,0.96,0
			c0.828-0.06,2.047,0.011,3.12,0c0.99-0.011,2.577-0.891,2.641,0.479c-0.27,0.051-0.374,0.267-0.48,0.48c-0.08,0-0.16,0-0.24,0
			c-0.094-0.503-0.434-0.957-1.439-0.72c-0.649,0.152-2.483,0.486-3.601,0.239c0.301,0.659,1.299,0.622,2.16,0.721
			c-0.58,0.716-1.486-0.047-2.16,0c-0.52,0.036-0.602,0.117-0.96,0.239c-0.113,0.039-0.956,0.622-0.96,0
			c0.214-0.186,0.542-0.258,0.96-0.239c0.077-0.424-1.345-0.429-0.96,0.239c-0.283,0.276-0.849,0.272-1.439,0.24
			c0.254,0.496,0.958,0.171,1.439,0.24c0.633,0.091,1.728,0.322,1.92,0.72c-1.101-0.019-1.63-0.609-2.88-0.479
			c-0.261,0.06-0.163,0.477-0.479,0.479c-0.113,0.541,1.302,0.74,1.439,0.24c0.279-0.039,0.427,0.053,0.48,0.24
			c-0.35,0.147,0.024,0.29,0,0c0.16,0,0.319,0,0.479,0c0,0.16,0,0.319,0,0.479c0.357,0.283,0.678,0.603,0.96,0.96
			c0.035,0.525,0.604,0.516,1.2,0.48c0.498-0.062,0.065-1.055,0.48-1.2c0.689,0.1,1.087-0.286,1.92-0.24
			c0.799,0.045,1.374,0.604,1.92,0.48c1.058-0.24,1.85-0.568,1.68-2.4c-0.816,0.063-0.679,1.081-1.2,1.44
			c-0.427-0.133-0.996-0.123-1.2-0.48c1.101,0.173,1.416-0.494,1.44-0.96c0.032-0.615,0.686-0.256,0.72-0.72
			c0.307,0.013,0.333,0.308,0.721,0.24c0.599,0.674,0.327,2.37-0.24,2.399c-0.278,0.015-0.106,0.151-0.24,0.24
			c-0.398,0.265-0.808,0.46-0.96,0.72c-1.424,0.144-2.139-0.421-3.6-0.239c-0.493,0.066-0.479,0.641-0.721,0.96
			c-0.972,0.258-1.668,0.258-2.64,0c-0.296-0.904-1.042-1.357-1.68-1.92c-1.582-0.307-2.811,0.918-3.601,0.96
			c-0.243,0.013-0.147,0.206-0.239,0.239c-0.212,0.077-0.51-0.079-0.721,0c-0.46,0.173-0.87,0.463-1.2,0.48
			c-0.263,0.014-0.124,0.185-0.239,0.24c-0.461,0.218-0.666,0.184-1.2,0.239c-0.662,0.07-1.005,0.205-1.68,0.24
			c-0.143,0.008-0.278,0.242-0.24,0.24c-0.455,0.02-0.529-0.262-0.96-0.24c-0.24,0.012-0.481-0.013-0.72,0
			c-0.14,0.008-0.283,0.241-0.24,0.24c-0.319,0.011-0.546-0.254-0.72-0.24c-0.433,0.034-0.548,0.263-0.96,0.24
			c-0.875-0.049-1.988-0.377-2.4-0.48c-0.386-0.096-0.636-0.102-0.72-0.479c-0.907,0.003-2.299-0.503-2.64-0.72
			c-0.504-0.322-0.672-0.844-1.44-0.721c0.014-0.332-0.117-0.523-0.24-0.72c-0.178-0.285-0.234-0.038-0.48-0.24
			c-0.082-0.066,0.073-0.401,0-0.479c-0.372-0.402-1.022-0.587-1.44-0.96c-0.036-1.075-0.551-1.586-0.96-1.92
			c-0.08-0.066,0.067-0.396,0-0.48c-0.162-0.202-0.557-0.273-0.72-0.479c-0.111-0.142,0.04-0.51-0.24-0.48
			c0.103-1.223-0.368-1.871-0.72-2.64c-0.921,0.152-1.362,0.282-2.16,0.239c-0.171-0.009-0.241-0.239-0.24-0.239
			c-0.244-0.029-0.284,0.239-0.48,0.239c0.07,0-0.145-0.216-0.24-0.239c-0.672-0.168-0.5-0.354-0.96-0.48
			c-0.297-0.082-0.657,0.063-0.96,0c-0.68,0.521-0.481,1.919-1.44,2.16c0.558,0.989-0.11,2.529-1.2,2.64
			c-0.461-0.339-0.434-1.165-0.72-1.68c-0.818-0.123-1.065,0.46-1.44,0.48c-0.248,0.013-0.142,0.202-0.24,0.239
			c-0.631,0.242-1.414,0.266-2.16,0.48c-0.023,0.007,0.02,0.22,0,0.24c-0.239,0.239-0.733-0.037-0.96,0.239
			c-0.05,0.062-0.629-0.004-0.72,0c-0.208,0.012-0.194,0.229-0.24,0.24c-0.304,0.068-0.657-0.071-0.96,0
			c-0.212,0.05-0.3,0.219-0.48,0.24c-2.003,0.243-3.129-0.638-4.56-0.24c0.233,0.727,0.634,1.286,0.72,2.16
			c0.728,0.014,2.135,0.725,2.4-0.24c0.917,0.295-0.693,0.932-0.72,0.96c-0.333,0.358-0.219,1.026-0.96,0.721
			c1.028,1.005,2.237,0.081,3.12-0.24c0.041-0.601-0.369-0.752-0.72-0.96c0.616-0.755,1.274,0.47,1.44,0.96
			c0.01,0.73-0.507,0.933-0.72,1.439c-1.947-0.224-2.895,0.027-4.56-0.479c-0.023-0.377,0.032-0.832-0.48-0.72c0-0.08,0-0.16,0-0.24
			c0.963,0.13,0.357-1.393,0-1.44c0.053-0.187,0.201-0.279,0.48-0.24c-0.475-1.564-1.029-3.363-0.48-5.279
			c0.293,0.027,0.568,0.071,0.48,0.479c0.284,0.116,0.544,0.256,0.72,0.48c0.356-0.203,0.347-0.772,0.48-1.2
			c0.729,0.296-0.26,0.825,0,1.44c-0.349,0.131-1.241-0.281-1.2,0.239c0.182,0.456,0.948,0.228,1.44,0.24
			c1.242,0.032,1.692,0.091,2.4,0.24c0.013,0.307,0.308,0.332,0.24,0.72c-0.31,0.331-1.042,0.237-1.68,0.24
			c-0.271-0.369-0.689-0.591-0.96-0.96c-0.758-0.038-1.448-0.009-1.68,0.479c0.072,0.683,0.866,0.703,1.2,0.721
			c0.194,0.01,0.212,0.234,0.24,0.239c0.442,0.081,0.537-0.262,0.96-0.239c0.149,0.008,0.27,0.241,0.24,0.239
			c0.246,0.015,0.281-0.232,0.48-0.239c0.569-0.02,1.041,0.036,1.44,0c0.334-0.031,0.509-0.215,0.72-0.24
			c0.156-0.019,0.527,0.231,0.48,0.24c0.313-0.056,0.331-0.22,0.72-0.24c0.23-0.013,0.165-0.218,0.24-0.24
			c0.566-0.171,1.696,0.225,1.44-0.72c-0.103-0.537-1.183-0.098-1.68-0.24c-0.036-0.587,0.557-0.313,0.96-0.479
			c0.359-0.15,0.918-0.466,1.44-0.721c1.169-0.57,1.668-0.499,1.2-1.439c0.325,0.075,0.458,0.342,0.96,0.239
			c0.378-0.021,0.188-0.611,0.72-0.479c0.482,0.489-0.106,0.471-0.24,0.96c0.036,0.444,0.813,0.147,0.96,0.48
			c-0.041,0.279-0.379,0.26-0.72,0.239c0.361,0.68,0.971,1.109,0.96,2.16c0.675,0.035,0.692-0.588,0.72-1.2
			c0.296-0.776-0.777-0.184-0.48-0.96c0.766,0.206,0.742-0.378,1.2-0.479c0.267-0.434,0.085-1.059,0.24-1.44
			c0.07-0.171,0.631-0.299,0.72-0.479c0.118-0.239-0.447-0.483,0-0.721c0.741,0.039,1.357-0.566,1.92,0
			c0.013-0.412-0.185-0.615-0.48-0.72c0.048-0.752,1.57-0.03,1.44-0.96c0.301,0.099,0.49,0.31,0.48,0.72
			c0.279-0.04,0.26-0.379,0.24-0.72c0.361-0.359,1.011-0.43,1.2-0.96c-0.535-1.212-1.476,0.139-2.16,0.24
			c-0.232-0.424,0.475-0.602,0.48-0.72c0.026-0.549-1.063-0.491-0.72-1.681c0.562-0.478,1.527-0.553,2.64-0.48
			c0.451-0.458-0.142-0.434,0-1.2c0.355-0.125,0.605-0.355,0.96-0.48c-0.003-0.477-0.655-0.305-0.48-0.96
			c-0.445,0.413-1.143,0.139-1.92,0.24c-0.891,0.116-2.114,0.508-2.64,0.48c-0.271-0.014-0.113-0.169-0.24-0.24
			c-0.553-0.307-1.153-0.35-0.96-1.2c-0.863-0.257-1.535-0.706-1.92-1.44c-0.418-0.222-1.288,0.008-1.2-0.72
			c0.944-0.169,1.203,0.167,1.44,0.48c0.413-0.074-0.312-0.833,0.72-0.72c0.195,0.83-0.448,1.013,0,1.44
			c0.308,0.412,1.143,0.297,1.2,0.96c0.787-0.014,0.917-0.683,1.92-0.48c-0.35,0.53-1.285,0.475-1.44,1.2
			c1.024-0.417,2.19,0.307,3.12-0.48c0.007,0.233,0.294,0.186,0.48,0.24c-0.006-0.233-0.293-0.186-0.48-0.24
			c-0.044-0.355-0.58-0.22-0.96-0.24c0.158-0.322,0.513-0.447,0.96-0.48c0.246,0.234,0.486,0.475,0.72,0.72
			c1.158-0.252,1.715,0.117,3.12-0.24c-0.259-1.122,0.958-1.562,0.24-2.4c0.146-0.734,0.51-1.25,0.72-1.92
			c-0.135-0.695-0.375,0.368-0.72,0.24c-0.085,1.355-1.208,1.672-1.2,3.12c-0.72,0-1.44,0-2.16,0
			c-0.051-0.269-0.267-0.374-0.48-0.48c-0.035-1.155,1.313-0.927,1.68-1.68c0.65,0.436-0.417,1.164-0.72,1.44
			c0.003,0.317,0.42,0.22,0.48,0.48c0.625-0.189,0.517-0.27,0.72-0.72c0.036-0.079,0.421-0.15,0.48-0.24
			c0.15-0.228,0.159-0.783,0.24-0.96c0.138-0.298,0.249-0.291,0.48-0.48c0.074-0.061-0.049-0.392,0-0.48
			c0.138-0.246,0.592-0.49,0.72-0.72c0.239-0.431,0.309-0.704,0.24-1.2c-0.266-0.878-1.819-0.839-2.64-0.48
			c-0.006-0.233-0.293-0.186-0.48-0.24c0.007,0.233,0.294,0.186,0.48,0.24c-0.35,0.53-1.285,0.475-1.44,1.2
			c0.101,0.539,1.273,0.006,1.44,0.48c0,0.32,0,0.64,0,0.96c-0.722,0.242-0.425-0.535-0.48-0.96c-0.874-0.074-1.562,0.038-2.16,0.24
			c-0.418-1.208,1.181-2.288,2.4-2.64c0.871-0.579,0.792-1.333,0.96-2.16c0.539-0.185,0.006,1.867,0.48,0.96
			c0.355,0.044,0.22,0.58,0.24,0.96c0.337-0.063,0.274-0.526,0.48-0.72c0.342,0.063,0.558,1.976,0.72,0.72
			c0.535,0.195,0.122,0.93,0.24,1.44c0.14,0.607,0.272,1.27,0.96,1.2c0.675,0.035,0.692-0.588,0.72-1.2
			c0.187,0.054,0.474,0.007,0.48,0.24c0.472-0.283,0.732-0.627,1.2-0.96c0.186-0.133,0.325-0.381,0.48-0.48
			c0.3-0.19,0.65-0.078,0.96-0.24c0.132-0.069,0.326-0.401,0.48-0.48c0.336-0.172,0.616-0.106,0.96-0.24
			c0.513-0.199,0.974-0.389,1.2-0.48c0.059-0.023,0.176,0.003,0.24,0c0.229-0.012,0.167-0.218,0.24-0.24
			c0.545-0.162,1.378-0.077,1.92-0.24c0.179-0.054,0.331-0.232,0.48-0.24c0.269-0.014,0.116-0.175,0.24-0.24
			c0.305-0.161,0.887,0.137,0.72-0.48c0.309-0.075,0.322,0.431,0.48,0.48c0.248,0.078,0.417-0.236,0.48-0.24
			c0.246-0.015,0.281,0.235,0.48,0.24c0.863,0.022,2.177-0.081,3.12,0c0.348,0.03,0.493,0.199,0.721,0.24
			c0.527,0.095,1.188-0.28,1.439,0.24c0.478-0.003,0.306-0.655,0.96-0.48c-0.115,0.471,1.101,0.773,1.2,0.24
			c0.396,0.003,0.135,0.666,0.48,0.72c0.918,0.123-0.216-0.872,0.96-0.48c0.143,0.048,0.229,0.415,0.479,0.48
			c0.347,0.09,0.896-0.123,0.96,0.24c-0.24,0-0.479,0-0.72,0c0.035,0.524,0.604,0.515,1.2,0.48c-0.06-0.261-0.478-0.163-0.48-0.48
			c0.734,0.174,0.706-0.414,1.44-0.24c0.268-0.219,0.075-0.446,0.24-1.2c0.631,0.603,0.808-0.602,1.439-0.72c0-0.32,0-0.64,0-0.96
			c0.613-0.165,1.155-1.287,1.44-1.44c0.545-0.293,0.951-0.134,1.439-0.24c1.794-0.39,3.941-0.769,5.521,0
			c0.788,1.291,2.128,2.872,1.68,4.8c-0.004,0.019-0.221-0.016-0.24,0c-0.076,0.063,0.056,0.393,0,0.48
			c-0.047,0.075-0.404,0.178-0.479,0.24c-0.08,0.066,0.065,0.396,0,0.48c-0.31,0.397-1.001,0.722-0.96,0.72
			c-0.258,0.014-0.131,0.192-0.24,0.24c-1.095,0.477-2.524,0.181-2.88-1.2c0.783-0.063,0.509,0.931,1.2,0.96
			c2.251,0.263,3.324-2.095,2.88-4.08c-0.214-0.954-1.174-1.081-1.2-1.92c-0.876-0.244-1.907-0.333-2.4-0.96
			C80.256,5.855,79.565,5.761,79.2,6c-0.362,0.236-0.489,0.661-0.72,0.96c-0.717-0.333-1.47-0.283-1.681,0.48
			c-0.735-0.236,0.276-0.64,0.24-0.96c-0.704,0.016-0.892,0.549-1.2,0.96c0.568,0.552,2.154,0.086,3.12,0.24
			c0.158,0.322,0.513,0.447,0.96,0.48c-0.031,0.591-0.036,1.156,0.24,1.44c1.483,0.229,2.103-0.909,2.399-1.68
			c0.001-0.241-0.194-0.286-0.239-0.48c-1.087-0.179,0.366,0.659-0.721,0.48c-0.595-0.591,0.178-1.041,0.96-0.96
			c0.051,0.27,0.267,0.374,0.48,0.48c0.076,0.557-0.039,0.921-0.24,1.2c0.036,0.444,0.813,0.147,0.96,0.48
			c0.14,0.779-0.163,1.116-0.24,1.68c-0.752-0.308,0.523-1.143-0.479-1.2c-0.498,0.062-0.065,1.054-0.48,1.2
			c0.027,0.293,0.072,0.568,0.48,0.48c-0.024,0.611-0.895,0.567-1.2,0.24c-0.333-0.147-0.036-0.924-0.479-0.96
			c0.308-0.413,1.143-0.297,1.199-0.96c-0.647-0.862-0.932,0.649-1.68,0.48c0.037,0.597-0.377,0.743-0.479,1.2
			c-0.598-0.036-0.07-0.813,0-0.96c-0.454-0.586-0.917-1.163-1.2-1.92c-0.28,0.041-0.261,0.379-0.24,0.72
			c-1.179,0.021-1.347,1.053-1.92,1.68c0.053,0.198,0.127,0.339,0.24,0.48c0.074,0.093,0.367-0.166,0.239-0.24
			c0.293,0.169,0.395,0.468,0.721,0.72c0.498,0.135,0.508,0.375,0.24,0.72c-0.302-0.098-0.491-0.31-0.48-0.72
			c-0.596,0.036-0.996-0.124-1.2-0.48c-1.192,0.588,0.238,1.754,0,2.88c0.217,0.17,0.243-0.48,0.24-0.48
			c0.498-0.065,0.449,0.977,0.24,1.44c-1.425-0.255-3.125-0.235-3.84-1.2c0.33-0.309,0.237-1.042,0.239-1.68
			c-0.301-0.66-1.298-0.622-2.16-0.72c-0.48,0.173-0.524-0.396-0.72-0.48c-0.629-0.27-0.91-0.047-1.2-0.24
			c-0.54-0.36-1.314-0.416-1.92-0.48c-0.333-0.035-0.506-0.21-0.72-0.24c-0.622-0.086-1.272,0.094-1.92,0
			c-0.295-0.043-0.546-0.231-0.72-0.24c-0.362-0.018-0.831,0.266-0.96,0.24c-0.096-0.019,0.03-0.247-0.24-0.24
			c-0.08,0.002-0.16-0.004-0.24,0c-0.117,0.006-0.312,0.238-0.24,0.24c-0.307-0.009-0.553-0.249-0.72-0.24
			c-0.245,0.013-0.279,0.199-0.48,0.24c-0.563,0.115-1.44-0.076-1.92,0c-0.478,0.076-1.146,0.318-1.68,0.48
			c-0.679,0.205-1.289,0.282-1.92,0.48c-0.175,0.055-0.333,0.232-0.48,0.24c-0.229,0.012-0.167,0.219-0.24,0.24
			c-0.696,0.207-0.85,0.06-1.2,0.24c-0.233,0.12-0.469,0.092-0.72,0.24c-0.097,0.058-0.137,0.403-0.24,0.48
			c-0.211,0.158-0.533,0.093-0.72,0.24c-0.514,0.403-1.057,0.809-1.2,1.44c-0.454-0.054-0.53,0.271-0.96,0.24
			c-0.53,0.75-0.729,1.832-1.68,2.16c0.076,0.324,0.342,0.458,0.24,0.96c-0.297,0.089-0.327,0.491-0.48,0.72
			c-0.366,0.548-0.079,1.112-0.48,1.44c-0.099,0.081-0.236,1.511-0.24,1.44c0.012,0.219,0.224,0.179,0.24,0.24
			c0.073,0.276-0.12,0.704,0,0.96c0.123,0.262,0.329,0.262,0.48,0.48c-0.013,0.307-0.308,0.333-0.24,0.72
			C47.92,23.52,47.84,23.52,47.76,23.52z M74.88,9.12C75.229,8.973,74.855,8.83,74.88,9.12c-1.513,1.106-0.559,2.342-0.72,4.8
			c0.477,0.003,0.305,0.655,0.96,0.48c0.558-0.163,0.643-0.797,1.2-0.96c0.179-0.739-0.659-0.461-0.48-1.2
			c0.354-0.242,0.048-0.991,0.24-1.68c0.019-0.067,0.229-0.016,0.24-0.24c0.015-0.276,0.01-0.429,0.239-0.48
			c0.073,1.166,0.927-0.109,0.96-0.48c0.357-0.283,1.073-0.208,0.961-0.96c-0.946-0.066-0.734,1.026-1.681,0.96
			c0.163-0.558,0.798-0.642,0.96-1.2c-0.904-0.185-1.146,0.292-1.92,0.24c0.011,0.411-0.178,0.622-0.479,0.72
			c-0.021,0.38,0.115,0.916-0.24,0.96C75.15,9.649,74.826,9.574,74.88,9.12z M60.72,9.6c-0.066-0.066-0.364,0.116-0.24,0.24
			C60.546,9.906,60.844,9.724,60.72,9.6z M46.8,11.04c-0.066-0.066-0.364,0.116-0.24,0.24C46.626,11.346,46.924,11.164,46.8,11.04z
			 M46.56,11.52c-0.066-0.066-0.364,0.116-0.24,0.24C46.386,11.826,46.684,11.644,46.56,11.52z M48.48,16.08
			c0.532,0.178,0.989-0.884,0.48-0.96C48.835,15.475,48.605,15.725,48.48,16.08z M63.84,30.48c0.428-0.177,0.035-0.437,0-0.721
			c0.532-0.132,0.342,0.459,0.72,0.48c0.277-0.78-0.732-1.477,0-1.92c-0.081,0.481,0.05,0.751,0.48,0.72
			c0.225-1.104-0.769-0.992-1.2-1.44c0-0.319,0-0.64,0-0.96c0.346,0.055,0.084,0.717,0.48,0.721c0.054,0.306,0.716,0.314,0.72,0
			c-0.193-0.207-0.657-0.143-0.72-0.48c0.106-0.214,0.211-0.429,0.479-0.479c0.051-0.411-0.409-0.622,0-0.721
			c0.673,0.156,0.268,0.506,0.24,0.96c0.002-0.028,0.275,0.062,0.24,0.24c-0.011,0.055-0.308-0.001-0.24,0.24
			c-0.005-0.019,0.434,0.125,0.479,0.24c0.083,0.206-0.065,0.506,0,0.72c0.579-0.099,0.522,0.438,1.2,0.24
			c-0.059-0.279,0.427-0.345,0.48-0.48c0.106-0.27-0.127-0.7,0-0.96c0.107-0.221,0.692-0.416,0.72-0.96
			c-1.056,0.049-0.219-1.049,0.24-0.96c0.201-1.561-0.396-2.323-0.96-3.12c-0.279,0.039-0.427-0.053-0.48-0.24
			c-1.026,0.304-1.187-0.018-2.399,0c0.104-0.295,0.307-0.493,0.72-0.48c-0.012-0.732,0.218-1.222,0.72-1.44
			c0.198,0.678-0.338,0.622-0.24,1.2c0.876,0.156,1.278-0.162,1.681-0.48c0.141-1.065-0.378-1.9-0.96-2.4
			c-0.128-0.109-0.562,0.068-0.721,0c0.004,0.001-0.167-0.199-0.239-0.24c-0.169-0.095-0.371-0.432-0.48-0.48
			c-0.348-0.152-1.092-0.088-1.439-0.24c-0.103-0.044-0.413-0.464-0.48-0.48c-0.48-0.112-1.01,0.086-1.44,0
			c0.049,1.009-0.912,1.008-0.96,1.92c0.488,0.632,0.472,1.768,0.96,2.4c-0.131,0.349,0.28,1.241-0.24,1.2
			c-0.085-0.315-0.423-0.377-0.48-0.72c0.137-1.417-0.617-1.943-0.48-3.36c-0.894-0.624-1.803-1.021-2.64-0.48
			c-0.133,0.086,0.037,0.226-0.24,0.24c-0.021,0.001-0.853,0.583-0.96,0.72c-0.206,0.262-0.073,0.657-0.24,0.96
			c-0.056,0.102-0.442,0.155-0.48,0.24c-0.254,0.564,0.43,1.787,0,2.4c0.635-0.199,0.295,0.457,0.48,0.72
			c0.093,0.133,0.694,0.018,0.48,0.48c-0.307,0.333-1.133,0.147-1.44,0.48c-0.589,0.32,0.432,0.725-0.24,0.96
			c-0.006-0.233-0.294-0.186-0.48-0.239c-0.138,0.907,1.15,0.233,0.96,0.96c-0.008,0.031-0.644-0.004-0.48,0.239
			c0.341-0.021,0.68-0.039,0.72,0.24c-0.38,0.021-0.916-0.115-0.96,0.24c1.324-0.139,1.31,0.766,0.72,1.439
			c0.649,0.567,1.372-0.428,1.92,0.24c-0.146,0.415-1.138-0.019-1.2,0.48c0.626,0.093,1.316,0.123,1.68,0.479
			c-0.481-0.081-0.751,0.049-0.72,0.48c0.733,0.173,0.875-0.246,1.44-0.24c0.055-0.316,0.462-0.375,0.48-0.72
			c0.018-0.348,0.469-0.362,0.72-0.721c0.224-0.318,0.014-1.522,0.96-1.199c-0.041,0.68-0.44,1-0.48,1.68c-0.5,0.46-1,0.92-1.2,1.68
			c0.122,1.022,1.51,1.148,2.4,0.721C60.879,31.31,63.882,31.041,63.84,30.48z M75.84,16.56c-0.066-0.066-0.364,0.116-0.24,0.24
			C75.666,16.866,75.964,16.684,75.84,16.56z M68.88,20.4c-0.979-0.099-1.514,0.246-1.439,1.2c0.692,0.616,1.282,1.147,1.439,2.16
			c0.138,0.881-0.809,1.804-0.24,2.641c-0.729,0.437-0.712,1.323-1.199,1.92c-0.085,0.103-0.145,0.097-0.24,0.239
			c-0.081,0.121,0.002,0.291-0.24,0.24c-0.278,0.201-0.644,0.316-1.2,0.24c-0.288,0.622-0.378,1.235-0.96,1.68
			c-0.308,0.235-0.739,0.453-1.2,0.721c-0.84,0.486-0.857,0.019-2.16-0.24c0.089,0.018-0.133,0.373-0.24,0.24
			c-0.248-0.31-1.056-0.261-1.92-0.24c-0.401-0.399-0.972-0.629-0.96-1.44c-0.825,0.105-1.345-0.095-1.92-0.24
			c-0.635-1.256-2.295-1.976-2.4-3.6c-0.031-0.479,0.334-1.025,0.24-1.68c0.633,0.073,0.619-0.501,0.72-0.96
			c0.562-0.062,0.138-1.054,0-1.2c-1.117-0.077-1.335,0.744-2.16,0.96c-0.876,0.004-1.078,0.682-1.68,0.96
			c0.192,0.832-0.357,0.923-0.24,1.68c-1.024,1.296-1.864,2.776-3.12,3.84c-0.203-0.703-0.772,0.144-1.2,0
			c0.334,0.866,0.687,1.714,1.2,2.4c-0.512,1.015,0.638,1.523,0.72,2.64c0.534,0.253,0.906,0.438,1.44,0.96
			c0.18,0.176,0.247,0.683,0.48,0.961c0.066,0.078,0.416-0.079,0.48,0c0.165,0.201,0.059,0.545,0.24,0.72
			c0.082,0.079,0.399-0.081,0.48,0c0.069,0.068-0.078,0.427,0,0.479c0.15,0.103,0.84,0.057,1.2,0.24
			c0.325,0.166,0.2,0.425,0.72,0.48c0.108,0.011,1.061,0.388,0.96-0.48c-0.105-0.356-0.307,0.095-0.72,0
			c0.184-0.553-0.444-0.509-0.72-0.72c-0.078-0.06-0.169-0.448-0.24-0.48c-0.115-0.052-0.381,0.076-0.48,0
			c-0.516-0.396-0.813-1.008-1.44-1.2c0.078-1.357-1.385-1.174-1.2-2.64c-0.754,0.114-0.981-0.299-1.2-0.72
			c-0.026-0.598-0.45-0.743,0-1.2c0.326,0.074,0.199,0.601,0.24,0.96c0.526,0.514,1.42,0.66,1.92,1.2
			c-0.127,0.193-0.25,0.39-0.24,0.72c0.564,0.227,0.721,0.282,0.96,0.72c0.141,0.258,0.044,0.748,0.24,0.96
			c0.071,0.077,0.414-0.08,0.48,0c0.188,0.23,0.24,0.297,0.48,0.48c0.078,0.06,0.169,0.448,0.24,0.48
			c0.6,0.27,1.041,0.312,1.68,0.72c0.035,0.022,0.288,0.255,0.24,0.24c0.756,0.24,2.017-0.012,2.88,0.239
			c0.071,0.021,0.013,0.229,0.24,0.24c0.307,0.017,1.036,0.369,1.92,0.24c0.336-0.049,0.456-0.247,0.72-0.24
			c0.244,0.006,0.506,0.298,0.96,0.24c0.444-0.057,1.031-0.377,1.44-0.48c0.545-0.138,0.953-0.178,1.44-0.239
			c-0.399,1.055-2.124,0.837-3.36,0.96c-0.209,0.021-0.386,0.215-0.72,0.239c-1.026,0.077-2.044,0.015-2.88-0.239
			c-0.303-0.093-0.465-0.21-0.72-0.24c0.026,0.003-0.309,0.257-0.48,0.24c-0.201-0.021-0.236-0.229-0.48-0.24
			c0.069,0.003-0.122,0.388-0.24,0.24c-0.17-0.214-0.392-0.311-0.48,0c0.309,0.107,0.386,0.392,0.72,0.479
			c0.375,0.099,0.821-0.085,1.2,0c0.046,0.011,0.032,0.229,0.24,0.24c0.588,0.031,0.808,0.181,1.44,0.24
			c0.42,0.039,0.514-0.243,0.96-0.24c-0.114-0.001,0.187,0.227,0.24,0.24c0.562,0.14,1.557-0.177,2.16-0.24
			c0.606-0.063,0.631-0.172,1.2-0.24c0.659-0.079,0.878-0.282,1.439-0.479c0.131-0.047,0.303-0.287,0.48-0.24
			c0.053,0.014,0.004,0.334,0.24,0.24c0.102-0.041-0.012-0.228,0.239-0.24c0.294-0.016,0.412-0.403,0.721-0.48
			c0.415-0.104,0.809-0.337,1.2-0.72c0.319-0.313,0.313-0.655,0.72-0.72c0.214-0.187,0.542-0.258,0.96-0.24
			c-0.112-0.512,0.343-0.457,0.72-0.48c-0.111-1.15,0.651-1.429,1.44-1.68c0.052-0.806,0.72-1.121,0.72-2.16
			c0-0.34,0.056-0.68-0.24-0.72c-0.033,0.447-0.157,0.802-0.479,0.96c0.101-0.849,0.596-1.82,0.72-2.88
			c0.2-1.715-0.028-3.532-0.24-5.04c0.193,0.127,0.39,0.25,0.721,0.24c-0.019-1.342-1.182-1.539-1.2-2.88
			c-0.776,0.297-0.184-0.776-0.96-0.48c0.139-0.46-0.791-0.845-1.2-0.96c-0.456-0.127-1.042-0.529-1.2,0.24
			C68.3,20.18,68.835,20.044,68.88,20.4z M55.2,20.4c-0.187,0.054-0.474,0.007-0.48,0.24C54.906,20.586,55.193,20.633,55.2,20.4z
			 M54.72,21.12c-0.003-0.242-0.421-0.302-0.48,0C54.509,21.096,54.614,21.469,54.72,21.12z M52.32,22.32
			c1.141,0.216,2.142-0.563,1.68-1.2C53.039,21.119,52.206,21.246,52.32,22.32z M43.2,23.04c-0.008,1.208,1.113,1.286,2.4,1.2
			c-0.192-0.833,0.357-0.923,0.24-1.68C44.721,22.481,43.947,22.747,43.2,23.04z M72.48,25.44c0.038-0.168-0.084-1.397-0.24-0.721
			C72.029,25.634,72.369,25.922,72.48,25.44z M54.72,25.2c-0.066-0.066-0.364,0.115-0.24,0.24
			C54.546,25.507,54.844,25.324,54.72,25.2z M72.72,26.4c0.001-0.134-0.194-0.272-0.239,0C72.479,26.533,72.675,26.673,72.72,26.4z
			 M55.44,26.64c-0.282,0.038-0.681-0.041-0.72,0.24C55.002,26.843,55.401,26.921,55.44,26.64z M42.24,28.32
			c-0.054-0.187-0.007-0.474-0.24-0.48c-0.71,1.057,0.719,0.939,1.2,0.72c-0.059-0.443-0.244-1.966-0.48-1.439
			C42.755,27.715,42.765,28.285,42.24,28.32z M43.68,28.56c0.07-0.489,0.649-0.47,0.72-0.96c-0.32,0-0.64,0-0.96,0
			C43.481,27.959,43.354,28.485,43.68,28.56z M72.48,30c0.076-0.612,0.971-2.574,0-2.4C72.662,28.438,71.754,29.412,72.48,30z
			 M40.8,27.84c-0.066-0.066-0.364,0.116-0.24,0.24C40.626,28.146,40.924,27.964,40.8,27.84z M41.52,28.08
			c-0.003-0.242-0.42-0.302-0.48,0C41.309,28.056,41.414,28.429,41.52,28.08z M43.92,28.8c-0.066-0.066-0.364,0.116-0.24,0.24
			C43.747,29.106,44.044,28.924,43.92,28.8z M35.52,30.72c0.24,0,0.48,0,0.72,0C36.203,30.438,36.281,30.039,36,30
			C35.979,30.378,35.388,30.188,35.52,30.72z M34.32,31.68c0.035-0.283,0.428-0.544,0-0.72C34.285,31.243,33.893,31.504,34.32,31.68
			z M36.48,31.68c0.094-0.342,0.288-0.404,0-0.72c-0.186,0.054-0.473,0.007-0.48,0.24C36.317,31.203,36.219,31.621,36.48,31.68z
			 M35.04,31.68c0.16,0,0.32,0,0.48,0c0-0.16,0-0.319,0-0.479c-0.16,0-0.32,0-0.48,0C35.04,31.36,35.04,31.52,35.04,31.68z
			 M35.04,31.92c-0.066-0.066-0.364,0.116-0.24,0.24C34.866,32.227,35.164,32.044,35.04,31.92z M34.32,32.16
			c-0.066-0.066-0.364,0.115-0.24,0.24C34.146,32.467,34.444,32.284,34.32,32.16z M70.56,34.56c-0.066-0.066-0.363,0.116-0.239,0.24
			C70.387,34.866,70.685,34.685,70.56,34.56z M72.24,34.8c-0.066-0.066-0.364,0.116-0.24,0.24
			C72.066,35.106,72.364,34.924,72.24,34.8z M68.88,36.48c-0.066-0.066-0.364,0.115-0.24,0.239
			C68.706,36.786,69.004,36.604,68.88,36.48z"/>
		<path fill-rule="evenodd" clip-rule="evenodd" d="M92.88,8.16c0.413-0.013,0.615,0.185,0.72,0.48c-0.272,0.045-0.133,0.241,0,0.24
			c-0.268,1.094,0.748,1.67,0.48,0.24c0.287,0.17,0.401,0.713,0.479,0.96c0.461,1.443-0.247,1.995-0.239,3.36
			c0.848-0.191,1.313-0.772,1.92,0c-0.21,0.505-0.78,0.161-1.2,0.24c-0.545,0.102-1.178,0.451-1.68,0.48
			c0.026-0.613,0.439-0.84,0.72-1.2c0-0.72,0-1.44,0-2.16c-0.936-0.056-0.276,1.483-0.96,1.68c0-0.56,0-1.12,0-1.68
			c-0.675,0.766-0.824,2.056-1.2,3.12c-0.697-0.559,0.451-1.293,0.24-2.16c-0.844,0.037-0.292,1.468-1.2,1.44
			c0.151-0.518,0.283-1.009,0.48-1.44c0.056-0.122,0.415-0.33,0.479-0.48c0.108-0.252-0.095-0.704,0.24-0.72
			c-0.321-0.878-0.981-1.419-1.92-1.68c-0.025-1.084,1.164-1.898,2.16-1.2c-0.1,0.54-1.316-0.036-1.2,0.72
			C91.596,8.875,92.754,9.044,92.88,8.16z M92.64,10.8c-0.066-0.066-0.364,0.116-0.239,0.24C92.467,11.106,92.764,10.924,92.64,10.8
			z"/>
		<path fill-rule="evenodd" clip-rule="evenodd" d="M92.88,8.16C92.59,8.185,92.732,7.811,92.88,8.16L92.88,8.16z"/>
		<path fill-rule="evenodd" clip-rule="evenodd" d="M59.28,8.4c-0.076-0.423,1.345-0.428,0.96,0.24
			C59.81,8.67,59.734,8.346,59.28,8.4z"/>
		<path fill-rule="evenodd" clip-rule="evenodd" d="M67.2,8.4c-1.13,0.437-1.774,0.072-2.88,0c-1.312-0.085-2.522,0.198-3.84,0.24
			c-0.135-1.02,1.132-0.235,1.2-0.24c-0.036,0.003,0.121-0.21,0.24-0.24c0.543-0.136,1.021,0.01,1.44,0
			C64.733,8.128,67.005,8.015,67.2,8.4z"/>
		<path fill-rule="evenodd" clip-rule="evenodd" d="M57.12,8.88c0.384-0.416,1.08-0.52,1.92-0.48
			C58.795,8.955,57.937,8.896,57.12,8.88z"/>
		<path fill-rule="evenodd" clip-rule="evenodd" d="M67.2,8.4c0.877,0.071,1.854-0.094,2.64,0c0.306,0.037,0.538,0.23,0.72,0.24
			c0.229,0.012,0.167,0.218,0.24,0.24c0.924,0.277,1.732-0.018,2.4,0.24c-0.498,1.008-2.538,0.182-3.12-0.24
			c-0.239,0.01-0.48-0.013-0.72,0c-0.12,0.006-0.309,0.239-0.24,0.24c-0.28-0.006-0.913-0.417-1.44-0.48
			C67.49,8.617,67.21,8.608,67.2,8.4z"/>
		<path fill-rule="evenodd" clip-rule="evenodd" d="M36.96,10.08c0.027-0.454,0.793-0.167,0.72-0.72
			C37.499,8.89,35.905,9.002,36,9.6C35.758,10.322,36.535,10.025,36.96,10.08c-0.441,0.279,0.126,1.566-0.96,1.2
			c-0.206,0.766,0.378,0.743,0.48,1.2c-1.497-0.103-0.691-2.508-1.2-3.6c1.437,0.296,2.851-0.81,3.6,0.24
			c0.756,0.116,0.543-0.737,1.44-0.48c-0.095,0.575,1.093-0.133,0.72,0.72c1.364,0.084,2.06-0.5,3.36-0.48
			c0.118,0.621-0.354,0.312-0.72,0.48c-0.496,0.228-0.833,0.455-1.2,0.72c-0.4,0-0.8,0-1.2,0c-0.601,0.041-0.751-0.369-0.96-0.72
			c-0.425-0.163-0.586,0.372-0.96,0.48C38.608,10.057,37.727,9.845,36.96,10.08z"/>
		<path fill-rule="evenodd" clip-rule="evenodd" d="M49.44,10.56c-0.645-0.475-1.183-1.057-2.4-0.96
			c-0.054-0.187-0.007-0.474-0.24-0.48c-0.187,0.053-0.279,0.201-0.24,0.48c-0.24,0-0.48,0-0.72,0c0,0.32,0,0.64,0,0.96
			c-0.457,0.643-0.123-0.688-0.24-0.96c-0.215-0.501-0.924-0.47-0.72-0.96c0.805,0.107,1.766-0.146,2.4,0
			c0.063,0.014,0.386,0.431,0.48,0.48c0.313,0.16,0.692,0.036,0.96,0.24C49.034,9.599,49.475,10.232,49.44,10.56z"/>
		<path fill-rule="evenodd" clip-rule="evenodd" d="M93.6,8.88c0-0.08,0-0.16,0-0.24c0.146,0.014,0.284,0.036,0.24,0.24
			C93.76,8.88,93.68,8.88,93.6,8.88z"/>
		<path fill-rule="evenodd" clip-rule="evenodd" d="M57.12,8.88c-0.502,0.815-1.442,0.656-2.16,0.96
			c-0.369,0.156-2.179,1.182-2.16,1.2c-0.208-0.208-0.131-0.184-0.48,0c-0.559,0.295-1,0.867-1.68,0.96
			c0.538-0.938,1.213-1.217,2.16-1.68c0.398-0.194,0.774-0.356,0.96-0.48c0.452-0.301,0.999-0.37,1.44-0.48
			C55.708,9.233,56.484,8.709,57.12,8.88z"/>
		<path fill-rule="evenodd" clip-rule="evenodd" d="M93.84,8.88c0.146,0.014,0.284,0.036,0.24,0.24
			C93.934,9.106,93.796,9.084,93.84,8.88z"/>
		<path fill-rule="evenodd" clip-rule="evenodd" d="M13.2,15.6c-0.49,0.153-0.517-0.367-0.72-0.48c-0.099-0.055-0.403,0.078-0.48,0
			c-0.192-0.195,0.136-1.295-0.72-0.96c0.055-0.306,0.716-0.314,0.72,0c0.315,0.084,0.377,0.422,0.72,0.48
			c0.102-0.253,0.509-0.086,0.72-0.24c0.933-0.678,1.031-2.504,0.72-3.6c-0.025-0.581-0.542-0.234-0.96-0.48
			c-0.261-0.153-0.396-0.615-0.96-0.72c-0.422-0.078-0.513,0.33-0.96,0.24c-0.333,0.388-0.68,0.76-0.96,1.2
			c-0.352-0.448-0.963-0.637-0.96-1.44c1.251-0.01,2.263-0.752,3.36-0.48c0.055,0.014,0.025,0.229,0.24,0.24
			c0.308,0.016,0.303,0.4,0.48,0.48c0.492,0.222,0.746,0.104,0.96,0.96c0.08,0.318,0.416,0.378,0.48,0.72
			c0.03,0.159,0.088,0.855,0,1.44c-0.002,0.014-0.23,0.057-0.24,0.24c-0.025,0.472-0.048,0.671-0.24,0.96
			c-0.073,0.109-0.201,0.176-0.24,0.24c-0.065,0.105-0.139,0.624-0.24,0.72C13.708,15.322,12.965,14.955,13.2,15.6z"/>
		<path fill-rule="evenodd" clip-rule="evenodd" d="M76.56,9.84c0-0.133,0.194-0.272,0.24,0C76.72,9.84,76.64,9.84,76.56,9.84z"/>
		<path fill-rule="evenodd" clip-rule="evenodd" d="M7.2,17.76c0.045,0.272,0.241,0.133,0.24,0c0.349-0.147-0.024-0.29,0,0
			C7.36,17.76,7.28,17.76,7.2,17.76c-0.013-0.413,0.185-0.615,0.48-0.72c0.055-0.425-0.242-1.202,0.48-0.96
			c-0.03,0.99,0.417,1.503,0.24,2.64c-1.247-0.127-1.923,0.316-2.88,0.48c-0.548-0.442-1.336-1.102-1.44-1.92
			c-0.061-0.473,0.485-1.755,0.96-2.88c0.049-0.116,0.418-0.336,0.48-0.48c0.057-0.133-0.035-0.339,0-0.48
			c0.048-0.194,0.21-0.167,0.24-0.24c0.25-0.625,0.293-1.41,0.48-1.68c0.133-0.193,0.547-0.308,0.72-0.48
			c0.473-0.473,0.677-0.752,1.2-0.96c0.306-0.122,0.472-0.307,0.96-0.24c-0.089,0.298-0.492,0.325-0.72,0.48
			c-0.925,0.627-1.79,1.459-2.16,2.64c-0.234,1.114,1.434,0.326,1.2,1.44c-0.454,0.476-1.134,0.117-1.68,0
			C4.734,14.941,4.67,18.02,6,18.24C6.597,18.277,6.743,17.863,7.2,17.76z"/>
		<path fill-rule="evenodd" clip-rule="evenodd" d="M36.48,12.48c0.282-0.038,0.681,0.042,0.72-0.24
			c0.279,0.04,0.26,0.379,0.24,0.72c-0.098,0.302-0.31,0.491-0.72,0.48c-0.299,0.305-0.307-0.023-0.72,0.24
			c-0.511,0.326-1.862,0.268-2.4,0.24c-0.132-0.007-0.293-0.241-0.24-0.24c-0.435-0.005-0.556,0.306-0.96,0.24
			c0.012,0.002-0.115-0.202-0.24-0.24c-0.407-0.123-0.682-0.129-0.96-0.24c-0.059-0.023-0.176,0.003-0.24,0
			c-0.21-0.011-0.19-0.229-0.24-0.24c-0.301-0.071-0.653,0.041-0.96,0c-0.739-0.098-1.327-0.194-2.16-0.24
			c-0.671-0.038-0.92-0.389-0.96,0c-0.557-0.067-0.552-0.641-0.24-0.96c-0.217-0.423-0.537-0.743-0.96-0.96
			c-0.003,0.317-0.42,0.219-0.48,0.48c0.094,0.342,0.288,0.405,0,0.72c-0.224,0.256-0.885,0.074-0.72,0.72
			c-1.741-0.009-3.386,0.527-4.32,0.96c-0.124,0.058,0.005,0.179-0.24,0.24c-0.133,0.033-0.36-0.063-0.48,0
			c-0.556,0.289-1.019,0.95-1.44,0.96c-0.092-0.77,0.419-0.584,0.72-0.72c0.079-0.036,0.149-0.421,0.24-0.48
			c0.292-0.191,0.649-0.089,0.96-0.24c0.023-0.011,0.156-0.187,0.24-0.24c1.124-0.716,2.826-0.736,4.08-1.2
			c0.539-0.101,0.006-1.273,0.48-1.44c1.436-0.722,2.632,0.243,2.88,1.44c0.699-0.313,1.298,0.357,1.92,0.48
			c0.384,0.075,0.818-0.084,1.2,0c1.315,0.291,2.571,0.979,3.84,0.96c0.774-0.012,1.52-0.445,2.4-0.48
			C36.73,12.87,36.607,12.673,36.48,12.48z"/>
		<path fill-rule="evenodd" clip-rule="evenodd" d="M49.44,10.56c0.725,0.155,0.67,1.09,1.2,1.44
			c-0.239,0.739-0.649-0.268-0.72-0.48C49.817,11.143,49.165,11.315,49.44,10.56z"/>
		<path fill-rule="evenodd" clip-rule="evenodd" d="M8.88,11.28c0.06-0.302,0.478-0.242,0.48,0
			C9.253,11.629,9.149,11.256,8.88,11.28z"/>
		<path fill-rule="evenodd" clip-rule="evenodd" d="M74.64,11.28c0.06-0.302,0.478-0.242,0.48,0
			C74.906,11.428,74.69,11.57,74.64,11.28z"/>
		<path fill-rule="evenodd" clip-rule="evenodd" d="M8.16,11.28c0.422,0.058,0.547,0.413,0.48,0.96
			C8.436,12.284,8.414,12.146,8.4,12c-0.281,0.039-0.202,0.438-0.24,0.72C7.297,12.55,7.823,11.594,8.16,11.28z"/>
		<path fill-rule="evenodd" clip-rule="evenodd" d="M12.24,11.28c-0.505,0.639-1.756,0.903-1.2,1.92c-0.871,0.233-0.512-1.341,0-1.2
			C11.259,11.579,11.486,11.166,12.24,11.28z"/>
		<path fill-rule="evenodd" clip-rule="evenodd" d="M39.84,12.48c-0.124-0.124,0.174-0.306,0.24-0.24
			C40.204,12.364,39.906,12.546,39.84,12.48z"/>
		<path fill-rule="evenodd" clip-rule="evenodd" d="M41.04,13.2c-0.018-0.418,0.054-0.747,0.24-0.96
			C41.846,12.306,41.258,13.134,41.04,13.2z"/>
		<path fill-rule="evenodd" clip-rule="evenodd" d="M43.2,12.72c-0.125-0.125,0.173-0.307,0.24-0.24
			C43.564,12.604,43.267,12.787,43.2,12.72z"/>
		<path fill-rule="evenodd" clip-rule="evenodd" d="M93.12,12.48c-0.038,0.282,0.041,0.681-0.24,0.72
			C92.918,12.917,92.839,12.519,93.12,12.48z"/>
		<path fill-rule="evenodd" clip-rule="evenodd" d="M87.36,15.84c-0.28-0.04-0.261-0.379-0.24-0.72
			c-0.22-0.82-1.204-0.876-0.96-2.16c0.282-0.038,0.681,0.042,0.72-0.24c0.741,0.404,2.032,0.308,2.16,1.2
			c-0.819-0.061-1.153-0.607-2.16-0.48c-0.234,1.114,1.435,0.326,1.2,1.44C87.279,14.639,87.293,15.213,87.36,15.84z"/>
		<path fill-rule="evenodd" clip-rule="evenodd" d="M9.12,12.96c0.16,0,0.32,0,0.48,0c0.067,0.388-0.227,0.413-0.24,0.72
			c-0.16,0-0.32,0-0.48,0C8.813,13.292,9.107,13.267,9.12,12.96z"/>
		<path fill-rule="evenodd" clip-rule="evenodd" d="M39.36,14.16c0.15-0.57,0.323-1.118,0.96-1.2
			C40.078,13.438,39.905,13.985,39.36,14.16z"/>
		<path fill-rule="evenodd" clip-rule="evenodd" d="M41.04,13.2c-0.054,0.186-0.007,0.473-0.24,0.48
			C40.854,13.494,40.807,13.207,41.04,13.2z"/>
		<path fill-rule="evenodd" clip-rule="evenodd" d="M77.76,13.2c0.759,0.045,0.557,1.772,0.24,2.16
			C77.455,15.104,77.908,13.852,77.76,13.2z"/>
		<path fill-rule="evenodd" clip-rule="evenodd" d="M92.88,13.2C93.109,14.197,92.161,13.249,92.88,13.2L92.88,13.2z"/>
		<path fill-rule="evenodd" clip-rule="evenodd" d="M10.08,13.44c0.24,0,0.48,0,0.72,0c0.457,1.057-0.684,1.838-1.92,1.92
			C8.637,14.077,10.323,14.723,10.08,13.44z M10.08,14.4c-0.066-0.066-0.364,0.116-0.24,0.24C9.906,14.707,10.204,14.524,10.08,14.4
			z"/>
		<path fill-rule="evenodd" clip-rule="evenodd" d="M40.08,15.36c0.583-0.777,1.578-1.142,2.16-1.92
			c0.573,0.274-0.599,1.356-0.72,1.44c-0.163,0.114-0.585,0.182-0.72,0.24C40.536,15.233,40.435,15.351,40.08,15.36z"/>
		<path fill-rule="evenodd" clip-rule="evenodd" d="M40.8,13.68c-0.184,0.776-0.664,1.256-1.44,1.44
			c0.249-0.632,0.952-0.809,1.2-1.44C40.64,13.68,40.72,13.68,40.8,13.68z"/>
		<path fill-rule="evenodd" clip-rule="evenodd" d="M82.8,13.92c0.361-0.651,1.035,0.382,1.44,0.48
			c0.197,0.603-0.467,2.067,0.479,1.92c-0.029,0.53-1.018,0.102-1.439,0.24C83.388,15.725,84.013,14.016,82.8,13.92z"/>
		<path fill-rule="evenodd" clip-rule="evenodd" d="M96.48,13.92c0.176-0.427,0.436-0.035,0.72,0c0.199,0.601,0.657,0.942,0.72,1.68
			c-0.327,0.141-0.633,0.338-0.96,0.48c-0.086,0.037-0.425-0.068-0.479,0c-0.023,0.028,0.029,0.226,0,0.24
			c-0.088,0.042-0.423-0.07-0.48,0c-0.32,0.391-1.065,0.237-1.68,0.48c-0.071,0.028-0.048,0.192-0.24,0.24
			c-0.127,0.032-0.369-0.065-0.48,0c-1.627,0.952-1.583,2.716-2.64,4.32c-0.074,0.875,0.038,1.562,0.24,2.16
			c-0.329,0-0.679-0.746-0.72-1.2c-0.035-0.383,0.187-0.419,0.239-0.72c0.098-0.552-0.045-0.773,0.24-1.2
			c0.195-0.293-0.025-0.562,0.24-1.2c0.048-0.117,0.436-0.146,0.479-0.24c0.09-0.19-0.104-0.539,0-0.72
			c0.095-0.164,0.352-0.271,0.48-0.48c0.161-0.262,0.752-0.815,0.96-1.2c0.654,0.021,0.483-0.4,0.96,0
			c0.499-0.141,0.775-0.504,1.2-0.72c0.916,0.116,1.531-0.068,1.92-0.48C97.291,14.549,96.784,14.336,96.48,13.92z"/>
		<path fill-rule="evenodd" clip-rule="evenodd" d="M18,21.6c-0.24,0-0.48,0-0.72,0c0.069,0.739,0.863,0.736,1.44,0.96
			c0.53,0.205,1.232,0.542,1.92,0.48c-0.337-0.383-0.827-0.613-1.44-0.72c0-0.08,0-0.16,0-0.24c1.667,0.093,2.516,1.004,4.08,1.2
			c-0.457,0.944-2.275-0.881-2.4,0.48c-0.541,0.076-0.91-0.43-0.96-0.48c-0.142-0.141-0.764,0.076-0.96,0
			c-0.077-0.03-0.142-0.434-0.24-0.48c-0.364-0.172-0.491,0.04-0.72-0.24c-0.229-0.279-1.04-0.009-1.2-0.24
			c-0.424,0.411-0.276,1.051-0.24,1.44c0.039,0.415,0.242,1.144,0.48,1.681c0.202,0.453,0.535,0.684,0.72,0.96
			c0.158,0.235,0.087,0.52,0.24,0.72c0.121,0.158,0.339,0.301,0.48,0.479c0.713,0.905,1.684,1.876,2.4,2.16
			c0.306,0.122,0.472,0.307,0.96,0.24c0.344-1.225-0.734-1.025-0.96-1.68c-0.027-0.907,0.47-1.291,1.2-1.44
			c-0.071,0.489-0.649,0.471-0.72,0.96c0.167,0.633,1.093,0.508,1.2,1.2c-0.219,0.421-0.083,1.197-0.48,1.44
			c0.018,0.346,0.447,0.399,0.48,0.72c0.065,0.633-0.488,0.65-0.24,1.2c0.041,0.09,0.441,0.123,0.48,0.239
			c0.097,0.286-0.103,0.677,0,0.96c0.145,0.4,0.699,0.616,0.48,1.2c0.385,0.416,0.897,0.703,1.44,0.96
			c-0.173,0.733,0.245,0.875,0.24,1.44c-0.597-0.363-1.097-0.823-1.2-1.681c-0.418,0.019-0.746-0.053-0.96-0.239
			c-0.111-0.849-1.076-0.844-0.96-1.92c-0.077-0.321-0.507-0.296-0.72-0.48c-0.203-0.175-0.278-0.54-0.48-0.72
			c-0.391-0.348-1.23-0.462-1.2-1.2c-1.59-0.09-1.837-1.523-3.12-1.92c0.052-0.689-0.2-0.92-0.48-1.2
			c-0.17-0.171-0.606-0.271-0.72-0.479c-0.097-0.179,0.059-0.524,0-0.721c-0.027-0.09-0.439-0.354-0.48-0.479
			c-0.064-0.195,0.011-0.515,0-0.72c-0.01-0.192-0.236-0.215-0.24-0.24c-0.061-0.343,0.252-0.524,0.24-0.72
			c-0.019-0.289-0.188-0.363-0.24-0.721c-0.242-1.657,0.573-2.499-0.24-3.36c-0.236-0.324-0.641-0.479-0.96-0.72
			c0.071-0.631-0.931-0.189-0.72-0.96c-0.842-0.217-0.776,0.458-1.2,0.48c-0.261,0.014-0.126,0.188-0.24,0.24
			c-1.032,0.473-2.35,0.035-2.64-0.72c0.274-0.017,0.364,0.094,0.48,0.24c0.116,0.145,0.314-0.234,0.24-0.24
			c0.313,0.025,0.863,0.255,0.96,0.24c0.626-0.101,0.69-0.308,0.96-0.48c0.174-0.111,0.323-0.127,0.48-0.24
			c0.404-0.29,0.667-0.857,1.2-0.96c0.131-0.349-0.281-1.24,0.24-1.2c0.485,0.023,0.521,0.198,0.24,0.48
			c-0.073,0.072-0.023,0.845,0,0.96c0.209,1.047,1.31,1.833,1.44,2.88c0.678-0.198,0.622,0.338,1.2,0.24c0.148,0.349,0.29-0.024,0,0
			c-0.149-0.651-1.002-0.598-0.96-1.44c0.691-0.509,0.621-1.779,1.44-2.16c-0.037,1.092-1.419,1.817-0.72,2.88
			c0.765-0.915,0.818-2.542,1.68-3.36c-0.134-0.695-0.374,0.368-0.72,0.24c0.2-0.76,0.7-1.22,1.2-1.68c0,0.24,0,0.48,0,0.72
			c0.201-0.184,0.471-0.085,0.72-0.24c0.23-0.143,0.286-0.313,0.48-0.48c0.396-0.202,0.772-0.355,0.96-0.48
			c0.437-0.292,0.82-0.208,1.44-0.24c0.347-0.018,0.399-0.446,0.72-0.48c0.667-0.07,1.405,0.667,1.92,0
			c0.849,0.191,0.679,1.401,1.44,1.68c0.53-0.03,0.102-1.018,0.24-1.44c0.783-0.175,0.472-0.195,0.96,0
			c0.059,0.023,0.176-0.003,0.24,0c0.199,0.01,0.206,0.233,0.24,0.24c0.751,0.148,1.624,0.118,1.92,0.48
			c0.065,0.08,0.395-0.064,0.48,0c0.117,0.087,0.112,0.392,0.24,0.48c0.404,0.278,0.984,0.315,1.2,0.48
			c0.274,0.209,0.949,0.983,0.96,1.2c0.014,0.257,0.193,0.132,0.24,0.24c0.272,0.632,0.219,1.376,0,2.16
			c-0.006,0.021-0.22-0.017-0.24,0c-0.076,0.062,0.053,0.392,0,0.48c-0.04,0.065-0.404,0.409-0.48,0.48
			c-0.908,0.855-2.558,0.638-2.88-0.72c-0.418,0.018-0.747-0.054-0.96-0.24c-0.808,0.152-1.231,0.689-2.4,0.48
			c-0.53,0.03-0.102,1.018-0.24,1.44c-0.356,0.284-1.072,0.208-0.96,0.96c-0.154,0.874,1.144,0.297,1.2,0.96c0,0.32,0,0.64,0,0.96
			c-0.714,0.086-1.218,0.382-1.68,0.72c0,0.32,0,0.64,0,0.96c-0.489,0.071-0.639,0.48-0.96,0.72c-1.188-0.16,0.803-0.616,0.24-1.68
			c-0.034-0.212-0.771-0.089-1.2,0c-0.672,0.14-1.122,0.576-1.68,0.48c-0.527-0.505-0.05-1.067,0.24-1.44
			c0.373,0.063,0.167,0.526,0,0.72c0.027,0.582,0.405-0.174,0.72-0.239c0.537-0.112,1.138,0.084,1.68,0
			c0.242-0.003,0.302-0.421,0-0.48c0.062-0.499,1.054-0.065,1.2-0.48c-0.176-1.536,0.222-2.499,0.96-3.12
			c-0.383-0.574-0.926-1.082-1.2-1.44c0.144-0.496,0.371-0.909,1.2-0.72c-0.104,0.376-0.755,0.205-0.48,0.96
			c0.103,0.537,1.183,0.097,1.68,0.24c0.242-0.003,0.302-0.42,0-0.48c0.549-0.533,1.46,0.608,2.64,0.24
			c0.063,0.337,0.526,0.273,0.72,0.48c0.135,0.345,0.375,0.585,0.72,0.72c0.741-0.023,1.416-0.264,1.44-0.72
			c0.013-0.242,0.209-0.151,0.24-0.24c0.18-0.516-0.045-1.24-0.24-1.68c-0.594-1.341-2.884-1.765-3.12-2.88c-0.56,0-1.12,0-1.68,0
			c-0.9,0.189-0.015,0.839-0.48,1.2c-1.165,0.205-1.362-0.558-1.68-1.2c-0.186-0.054-0.473-0.006-0.48-0.24
			c-1.392-0.089-3.021,0.183-3.6,0.48c-0.25,0.128-0.437,0.098-0.72,0.24c-0.468,0.235-0.644,0.792-1.2,0.72
			c-0.383,0.977-1.098,1.622-1.92,2.16c0.168,0.767-0.204,1.475-0.24,1.92c-0.026,0.333,0.379,0.412,0,0.72
			c0.51,0.236,1.07-0.073,1.68,0.48C18,21.44,18,21.52,18,21.6z M12.96,18.48c-0.066-0.066-0.364,0.116-0.24,0.24
			C12.787,18.787,13.084,18.604,12.96,18.48z M15.12,24C14.973,23.651,14.83,24.024,15.12,24c-0.57,0.745,0.695,1.259,0.96,1.92
			c-1.269-0.067,0.104,0.714,0.24,0.96c0.197,0.357,0.101,0.975,0.24,1.2c0.047,0.076,0.422-0.071,0.48,0
			c0.191,0.234,0.225,0.774,0.48,1.2c0.578-0.099,0.521,0.438,1.2,0.239c0.082,0.799,0.909,0.852,1.2,1.44
			c0.615-0.26,1.144,0.729,1.44,0c-1.078-0.201-1.321-1.238-2.4-1.44c0.113-0.753-0.646-0.634-0.72-1.199
			c-0.502,0.102-0.636-0.165-0.96-0.24c-0.002-0.802-1.156-1.174-0.48-1.92c-0.34,0.021-0.68,0.039-0.72-0.24
			c0.768,0.418,0.32-0.798,0-0.96c0.074,0.037-0.336,0.321-0.24,0c0.563-0.396,0.52-1.4,0.48-2.4c-0.597,0.037-0.743-0.377-1.2-0.48
			c-0.194,0.507,0.34,0.937,0.48,1.44c0.075,0.269,0.252,0.889,0,0.96C15.339,24.421,15.437,24.003,15.12,24z M17.76,27.12
			c-0.269,0.024-0.374-0.349-0.48,0C17.283,27.362,17.701,27.422,17.76,27.12z"/>
		<path fill-rule="evenodd" clip-rule="evenodd" d="M71.28,13.92c0.16,0,0.319,0,0.479,0c0,0.16,0,0.32,0,0.48
			c-0.16,0-0.319,0-0.479,0C71.28,14.24,71.28,14.08,71.28,13.92z"/>
		<path fill-rule="evenodd" clip-rule="evenodd" d="M72,14.16c-0.04-0.521,0.852-0.109,1.2-0.24
			C73.176,14.531,72.306,14.487,72,14.16z"/>
		<path fill-rule="evenodd" clip-rule="evenodd" d="M82.08,13.92c0.735,0.235-0.107,0.809-0.24,0.96
			C81.104,14.645,82.116,14.24,82.08,13.92z"/>
		<path fill-rule="evenodd" clip-rule="evenodd" d="M89.52,13.92c0.602-0.317,0.752,0.949,0.961,0.24
			c0.778,0.416-0.624,0.629-0.24,1.44C88.812,15.714,89.579,14.881,89.52,13.92z"/>
		<path fill-rule="evenodd" clip-rule="evenodd" d="M92.4,14.16c-0.125-0.124,0.173-0.307,0.239-0.24
			C92.764,14.044,92.467,14.227,92.4,14.16z"/>
		<path fill-rule="evenodd" clip-rule="evenodd" d="M38.88,14.4c0.053-0.187,0.201-0.279,0.48-0.24
			C39.307,14.347,39.159,14.439,38.88,14.4z"/>
		<path fill-rule="evenodd" clip-rule="evenodd" d="M38.88,14.4c0.035,0.69-2.583,1.119-2.64,0.72
			C37.058,14.817,38.063,14.704,38.88,14.4z"/>
		<path fill-rule="evenodd" clip-rule="evenodd" d="M36.24,15.12C34.703,15.397,35.713,14.387,36.24,15.12L36.24,15.12z"/>
		<path fill-rule="evenodd" clip-rule="evenodd" d="M33.84,15.36c-0.124-0.124,0.174-0.306,0.24-0.24
			C34.204,15.244,33.906,15.426,33.84,15.36z"/>
		<path fill-rule="evenodd" clip-rule="evenodd" d="M34.8,15.36C33.803,15.589,34.751,14.641,34.8,15.36L34.8,15.36z"/>
		<path fill-rule="evenodd" clip-rule="evenodd" d="M39.36,15.12c-0.221,0.419-0.75,0.53-1.44,0.48
			C38.216,15.256,38.745,15.146,39.36,15.12z"/>
		<path fill-rule="evenodd" clip-rule="evenodd" d="M93.84,15.36C93.815,15.07,94.188,15.212,93.84,15.36L93.84,15.36z"/>
		<path fill-rule="evenodd" clip-rule="evenodd" d="M87.6,27.12c-0.08,0-0.159,0-0.239,0c-0.687,0.392,0.744,1.409,0,1.92
			c0.832,0.192,0.922-0.357,1.68-0.24c0.18-0.82-0.976-0.305-0.72-1.2c-0.279-0.039-0.428,0.054-0.48,0.24
			C87.559,27.801,87.638,27.402,87.6,27.12c0.302-0.099,0.491-0.31,0.48-0.72c0.944-0.271,1.668,0.724,1.92-0.24
			c0.947,0.708-1.329,1.017-1.68,0.479c0.012,0.948,0.491,1.429,1.439,1.44c-0.645,0.673,0.9,0.511,1.2,0.96
			c0.295-0.24,0.374-0.68,0.48-0.96c0.07-0.188,0.234-0.627,0.239-0.72c0.012-0.209,0.229-0.192,0.24-0.24
			c0.173-0.756-0.455-0.962-0.24-1.44c0.039-0.087,0.453-0.122,0.48-0.239c0.063-0.281-0.21-0.369-0.24-0.48
			c-0.286-1.051,0.51-0.451,0.72-0.72c0.353-0.452-0.515-1.119,0-1.44c0.188,0.053,0.279,0.201,0.24,0.48
			c0.82-0.048,0.192-0.911,0.24-1.2c0.005-0.031,0.457-0.175,0.479-0.24c0.096-0.268-0.391-0.362-0.239-0.72
			c0.587-0.179,0.661-0.707,0.96-1.2c0.263-0.434,0.616-0.933,0.72-1.44c0.335,0.1,0.521-0.229,0.72-0.24
			c0.268-0.014,0.51-0.351,0.721-0.48c0.188-0.116,0.515-0.469,0.72-0.48c0.529-0.028,0.725-0.432,0.96-0.72
			c0.057-0.069,0.393,0.04,0.479,0c0.14-0.064,0.304-0.426,0.721-0.24c0.03-0.431-0.238-0.562-0.721-0.48
			c0.104-0.537,1.184-0.097,1.681-0.24c-1.229,0.889,1.396,0.217,1.68-0.24c1.302-0.058,2.335-0.385,3.84-0.24
			c0.385,0.944-1.036,0.083-0.96,0.72c0.123,0.938,3.459-0.048,2.4,1.2c0.01,0.255-0.113,0.609-0.24,0.24
			c-0.343-0.057-0.405-0.395-0.72-0.48c-1.973-0.295-4.092-0.682-5.521-0.24c-0.31,0.096-0.544,0.102-0.96,0.24
			c-0.204,0.068-0.137,0.184-0.24,0.24c-0.408,0.224-1.311,0.298-1.68,0.48c-0.373,0.184-0.805,0.621-0.96,0.72
			c-0.668,0.425-1.463,0.848-1.92,1.44c-0.075,0.098,0.052,0.365,0,0.48c-0.08,0.177-0.464,0.172-0.48,0.48
			c-0.013,0.246-0.205,0.146-0.239,0.24c-0.233,0.631-0.145,1.49-0.24,2.16c-1.561,1.159-1.352,4.088-1.92,6.24
			c0.173,0.227,0.099,0.437,0.24,0.72c0.104,0.207,0.424,0.341,0.479,0.48c0.082,0.201-0.095,0.524,0,0.72
			c0.397,0.82,0.958,1.479,1.44,2.16c1.475-0.195,1.803,0.757,3.12,0.72c0.328,0.631,1.01,0.909,1.199,1.68
			c0.738,0.063,1.08,0.521,1.681,0.721c0.08,0.396,0.463,0.644,0.479,0.96c0.015,0.277,0.154,0.106,0.24,0.239
			c0.419,0.648,0.08,1.358,0,1.681c-0.215,0.86-0.446,0.729-0.96,0.96c-0.091,0.041-0.125,0.436-0.24,0.479
			c-0.334,0.127-1.042-0.304-1.2,0.24c-0.647-0.072-0.43-1.01-0.96-1.2c0.203-0.757,1.237-0.683,1.44-1.439
			c0.253-0.893-0.81-0.471-0.96-0.96c-0.892,0.389-2.36,0.199-3.601,0.239c-0.645,0.166-0.464-0.496-0.72-0.72
			c-1.396-0.204-2.922-0.278-4.08-0.72c0.099-0.302,0.31-0.491,0.721-0.48c-0.361-0.482-0.687-0.069-0.721-0.72
			c-0.018-0.345-0.425-0.403-0.479-0.72c-1.271,0.069-1.779-0.621-3.12-0.48c-0.411-0.869-0.599-1.961-0.48-3.359
			c0.566-0.074,0.447-0.834,1.2-0.721c0.052-1.284-0.15-2.115-0.479-2.88c-0.353-0.817-1.317-1.221-1.44-2.16
			c-1.208-0.312-2.766-0.274-3.6-0.96c-0.308,0.014-0.333,0.308-0.721,0.24c-0.73,0.389-1.021,1.218-1.439,1.92
			c-1.202,0.161-1.858-0.223-2.88-0.24c-0.516-0.685-1.145-1.256-1.44-2.16c-0.218-0.422-0.841-0.439-1.2-0.72
			c0.451-0.589,1.915-0.171,2.16,0.24c-0.318,1.919,0.892,2.309,2.641,2.16c0.356-0.203,0.347-0.772,0.479-1.2
			c0.413,0.013,0.615-0.185,0.72-0.48c1.502-0.064,2.604,0.051,3.36,0.24c0.061,0.015,0.345,0.243,0.24,0.24
			c0.338,0.01,0.437-0.298,0.96-0.24c0.07,0.008,0.356,0.469,0.72,0.24c0.711,0.811,1.403,1.636,2.16,2.4
			c0.119,0.119,0.383,0.098,0.479,0.239C87.6,26.8,87.6,26.96,87.6,27.12z M103.2,15.84c0.292,0.292,1.576-0.362,0.72-0.48
			c0.004,0-0.002,0.24,0,0.24C103.804,15.608,103.026,15.667,103.2,15.84z M91.92,28.56c0.001-0.133-0.194-0.272-0.24,0
			C91.68,28.693,91.874,28.832,91.92,28.56z M88.08,29.28c-0.367,0.753-1.505,0.735-1.68,1.68c1.017-0.183,1.398-1.001,2.159-1.44
			c0.187-0.054,0.474-0.006,0.48-0.239C88.72,29.28,88.4,29.28,88.08,29.28z M87.6,32.64c-0.045,0.194-0.24,0.239-0.239,0.48
			c0.315,0.308,0.885,0.308,1.199,0c-0.233,0.871,1.342,0.512,1.2,0c0.319,0.241,0.894,0.227,0.96,0.72
			c-0.654,0.021-0.482-0.399-0.96,0c-0.092,0.417,0.45,0.601,0.721,0.96c0.133,0.179,0.467,0.478,0.479,0.72
			c0.039,0.738,0.649-0.177,1.2,0.24c0.012,0.01-0.357,0.53-0.24,0.721c0.733,0.173,0.875-0.246,1.44-0.24
			c1.189,0.811,2.899,1.101,5.04,0.96c0.354,0.125,0.604,0.354,0.96,0.479c0.175-0.654-0.478-0.482-0.48-0.96c0.16,0,0.32,0,0.48,0
			c0.034-0.675-0.588-0.692-1.2-0.72c-0.028-0.932-1.178-0.743-1.2-1.68c-0.6,0.159-0.925-0.346-1.44-0.48
			c0.087,0.022-0.357,0.252-0.479,0.24c0.072,0.007-0.157-0.22-0.24-0.24c-0.371-0.093-0.771-0.139-0.96-0.72
			c-0.689,0.05-1.219-0.061-1.439-0.48c-0.063-0.192-0.221-0.24-0.24-0.479c-0.015-0.179,0.51-0.669,0-0.72c0-0.32,0-0.641,0-0.96
			c-1.118-0.212,0.162,0.791-0.48,0.72c-0.564-0.152-0.087-0.873-0.239-1.2c-0.032-0.067-0.431,0.062-0.48,0
			c-0.163-0.199-0.05-0.558-0.24-0.72c-0.664-0.258-1.223,0.234-1.68,0.479c-0.256,0.138-0.538,0.048-0.72,0.24
			c-0.261,0.276-0.544,0.669-0.721,0.96c0.279-0.039,0.428,0.053,0.48,0.24c-0.315,0.085-0.378,0.422-0.72,0.479
			c-0.261-0.059-0.163-0.477-0.48-0.479c-0.026,0.453-0.793,0.166-0.72,0.72c0.224,0.176,0.363,0.437,0.479,0.72
			C86.96,32.64,87.28,32.64,87.6,32.64z M91.92,29.76c-0.066-0.066-0.364,0.116-0.24,0.24C91.746,30.066,92.044,29.884,91.92,29.76z
			 M93.12,32.16c-0.187,0.054-0.474,0.007-0.48,0.24C92.826,32.347,93.113,32.394,93.12,32.16z M100.32,37.44
			c0.165-0.646-0.496-0.464-0.721-0.721C99.456,37.344,99.696,37.584,100.32,37.44z M99.84,39.36c-0.318,0.24-0.893,0.227-0.96,0.72
			c1.217,0.149,2.362-1.693,1.2-2.4C99.749,37.989,99.843,38.723,99.84,39.36z"/>
		<path fill-rule="evenodd" clip-rule="evenodd" d="M7.2,15.6c0.015-0.017-0.017-0.237,0-0.24c0.853-0.15,0.022,1.067-0.24,0.72
			C6.973,16.097,7.176,15.627,7.2,15.6z"/>
		<path fill-rule="evenodd" clip-rule="evenodd" d="M34.8,15.36C35.09,15.335,34.948,15.709,34.8,15.36L34.8,15.36z"/>
		<path fill-rule="evenodd" clip-rule="evenodd" d="M35.52,15.36c0.204-0.044,0.227,0.094,0.24,0.24c0.4,0,0.8,0,1.2,0
			c0.462-0.102,0.866,0.165,0.48,0.24C36.838,15.642,35.374,16.307,35.52,15.36z"/>
		<path fill-rule="evenodd" clip-rule="evenodd" d="M39.6,15.6c0.053-0.187,0.201-0.279,0.48-0.24
			C40.027,15.547,39.879,15.639,39.6,15.6z"/>
		<path fill-rule="evenodd" clip-rule="evenodd" d="M93.84,15.36C93.791,16.079,92.843,15.13,93.84,15.36L93.84,15.36z"/>
		<path fill-rule="evenodd" clip-rule="evenodd" d="M106.8,15.36c0.16,0,0.32,0,0.48,0C107.328,16.036,105.486,15.294,106.8,15.36z"
			/>
		<path fill-rule="evenodd" clip-rule="evenodd" d="M37.2,16.32c-0.807,0.769-2.096-0.392-2.88,0.24
			c0.054-0.454-0.271-0.53-0.24-0.96C34.833,16.127,36.336,15.904,37.2,16.32z"/>
		<path fill-rule="evenodd" clip-rule="evenodd" d="M39.12,15.84c0.053-0.187,0.201-0.279,0.48-0.24
			C39.547,15.787,39.399,15.879,39.12,15.84z"/>
		<path fill-rule="evenodd" clip-rule="evenodd" d="M108.96,31.92c-0.16,0-0.32,0-0.479,0c-0.479,0.047,0.211,0.675,0.239,0.72
			c0.328,0.514,0.505,1.078,0.96,1.44c0.096,0.076,0.367-0.051,0.48,0c0.091,0.041,0.124,0.437,0.24,0.479
			c0.454,0.17,1.397,0.141,1.92,0c0.499-0.134,0.588-0.654,0.96-0.96c0.185-0.151,0.547-0.107,0.72-0.239
			c0.162-0.124,0.182-0.485,0.48-0.48c-0.077-1.117,0.478-1.602,0.479-2.64c-0.229-0.339-0.777-0.517-1.2-0.721
			c-0.511-0.246-0.708-0.454-1.2-0.479c-0.193-0.011-0.211-0.234-0.239-0.24c-1.297-0.237-2.699,0.395-3.84,0
			c-0.099-0.578,0.438-0.521,0.239-1.2c0.955-0.564,2.295-0.745,2.4-2.159c0.695-0.265,1.623-0.298,1.68-1.2
			c0.377-0.104,0.205-0.755,0.96-0.48c-0.051-0.292-0.358-0.252-0.479-0.48c-0.198-0.369-0.09-1.079-0.24-1.44
			c-0.061-0.144-0.233-0.358-0.24-0.48c-0.015-0.276-0.157-0.108-0.24-0.24c-0.201-0.323-0.282-0.701-0.479-0.96
			c-0.632-0.832-1.419-1.156-2.16-1.92c-0.738,0.168-0.461,0.168-1.2,0c-0.751,0.111-1.071-0.209-0.96-0.96
			c0.225,0.053,0.5-0.066,0.721,0c0.09,0.027,0.354,0.437,0.479,0.48c0.384,0.133,1.085,0.055,1.44,0.24
			c0.056,0.029,0.19,0.42,0.239,0.48c0.063,0.078,0.394-0.058,0.48,0c0.079,0.053,0.174,0.399,0.24,0.48
			c0.065,0.081,0.397-0.069,0.479,0c0.278,0.233,0.069,1.089,0.72,0.72c-0.044,1.057,0.945,0.068,0,0
			c-0.003-0.477-0.654-0.305-0.479-0.96c-0.32-0.064-0.496-0.325-0.72-0.48c-0.193-0.134-0.528-0.083-0.721-0.24
			c-0.071-0.059,0.076-0.432,0-0.48c-0.29-0.184-0.843,0.099-0.96-0.24c0.158-0.322,0.514-0.447,0.96-0.48
			c-0.434-0.783-0.88-0.063-1.92-0.24c-0.075-0.564-1.138-0.143-0.96-0.96c0.153,0.029,0.33-0.038,0.48,0
			c0.161,0.04,0.207,0.23,0.24,0.24c0.748,0.228,1.622,0.117,1.92,0.48c0.063,0.079,0.394-0.06,0.479,0
			c0.159,0.111,0.288,0.345,0.48,0.48c0.332,0.233,1.048,0.463,0.96,0.96c-0.578,0.099-0.521-0.438-1.2-0.24
			c0.218,0.421,0.841,0.439,1.2,0.72c-0.044,0.523,0.196,0.763,0.72,0.72c0.134,0.848,0.69,1.756,0.96,2.16
			c0.211,0.315,0.137,0.487,0.24,0.96c0.048,0.221,0.213,0.293,0.24,0.48c0.305,2.122-0.701,3.11-0.961,4.56
			c-0.61,0.27-1.17,0.59-1.68,0.96c0.462,0.961,2.722,0.713,3.12,1.2c0.057,0.069,0.394-0.04,0.48,0
			c0.14,0.064,0.303,0.426,0.72,0.239c-0.027,1.493-0.568,2.472-0.72,3.841c-0.713-0.003-0.724,0.87-1.2,1.199
			c-0.148,0.103-0.604,0.198-0.721,0.24c-0.902,0.328-1.446,0.824-2.159,0.96c-1.098-0.263-1.75-0.97-2.641-1.439
			c-0.412,0.308-0.297,1.143-0.96,1.199c-0.766,0.206-0.742-0.377-1.2-0.479c-0.388,0.392-1.003-0.214-1.92,0
			c-0.201-0.519-0.621-0.818-0.479-1.68c-0.053-0.188-0.201-0.279-0.48-0.24c-0.29-0.644,0.538-0.565,0.721-0.72
			c0.293-0.249,0.427-0.913,0.96-0.721c0.586,0.706-0.869,0.908-0.721,1.92c0,0.241,0.194,0.286,0.24,0.48
			c-0.04,0.521,0.852,0.108,1.2,0.24c0.339,0.726,1.826,0.589,1.92-0.24c0.02-0.865-0.449-1.332-0.48-1.92
			c-0.01-0.188-0.236-0.22-0.239-0.24c-0.114-0.693,0.423-1.368,0-2.16c0.727-0.33,0.857,0.114,1.92,0
			c0.04,0.521-0.852,0.109-1.2,0.24c0.158,0.322,0.513,0.447,0.96,0.48c1.25,0.145-0.484,0.345-0.96,0.239
			c0.427,0.487,0.977,0.158,0.24,0.721c0.33-0.011,0.526,0.112,0.72,0.239C108.96,31.76,108.96,31.84,108.96,31.92z M113.28,21.12
			C113.051,22.117,113.999,21.168,113.28,21.12C113.51,20.123,112.562,21.071,113.28,21.12z M113.76,22.32
			c0.036-0.251-0.186-0.62-0.24-0.24C113.484,22.332,113.706,22.7,113.76,22.32z M113.28,24.72c-0.502,0.114-0.764,1.356-1.92,1.2
			c-0.17,0.725-0.732,1.057-1.2,1.44c-0.354,0.291-1.103,0.247-0.96,0.96c1.217,0.072,1.551-1.107,2.64-0.48
			c0.51-0.529,0.58-1.499,1.44-1.68C113.28,25.68,113.28,25.2,113.28,24.72C114.009,24.437,113.02,23.447,113.28,24.72z"/>
		<path fill-rule="evenodd" clip-rule="evenodd" d="M8.64,15.84c0.528,0.272,0.017,1.583,0.72,1.68
			C8.763,18.255,8.509,16.627,8.64,15.84z"/>
		<path fill-rule="evenodd" clip-rule="evenodd" d="M39.12,15.84c-0.384,0.417-1.081,0.52-1.92,0.48
			c0.044-0.355,0.58-0.22,0.96-0.24C38.205,15.725,38.74,15.86,39.12,15.84z"/>
		<path fill-rule="evenodd" clip-rule="evenodd" d="M87.36,15.84c0.437,0.523,1.483,0.437,1.92,0.96
			c0.129,1.25-0.461,1.779-0.48,2.88c-0.753-0.703,0.123-1.321,0-1.92C88.533,16.462,87.524,16.936,87.36,15.84z"/>
		<path fill-rule="evenodd" clip-rule="evenodd" d="M92.64,16.08c-0.124-0.124,0.174-0.307,0.24-0.24
			C93.004,15.964,92.706,16.146,92.64,16.08z"/>
		<path fill-rule="evenodd" clip-rule="evenodd" d="M98.16,16.08c-0.124-0.124,0.174-0.307,0.24-0.24
			C98.524,15.964,98.227,16.146,98.16,16.08z"/>
		<path fill-rule="evenodd" clip-rule="evenodd" d="M36.96,24.72c-0.521-0.359-0.559-1.201-1.44-1.2
			c-0.576,0.705-1.084,1.475-1.68,2.16c0.158,0.521,0.626,0.153,1.2,0.24C36.283,26.108,36.807,26.36,36.96,24.72
			c0.562,0.062,0.138,1.055,0,1.2c0.735-0.029,1.224,0.043,1.68,0c0.636-0.06,1.574-0.501,1.68-0.479
			c0.08,0.016-0.029,0.348,0.24,0.239c0.171-0.068,0.193-0.426,0.48-0.479c0.413-0.077,0.91,0.056,1.44,0
			c-0.041,0.279-0.379,0.261-0.72,0.24c-0.307-0.101-0.128,0.392-0.24,0.479c-0.084,0.066-0.372-0.027-0.48,0
			c-0.566,0.142-0.606,0.963-1.44,0.72c0.013-0.307,0.308-0.332,0.24-0.72c-0.735-0.141-0.972,0.653-1.2,0.72
			c-0.3,0.089-0.336-0.453-0.48-0.479c-0.442-0.08-0.458,0.326-0.72,0.72c-0.293,0.125-0.146-0.423-0.24-0.479
			c-0.268-0.161-0.581,0.262-0.72,0.239c-0.421-0.065-1.024-0.177-1.44-0.239c-0.432-0.065-0.875-0.049-0.96-0.24
			c-0.413-0.013-0.615,0.185-0.72,0.479c-0.063,0.81,0.96,0.689,1.44,0.721c0.263,0.017,0.141-0.202,0.24-0.24
			c0.191-0.073,0.494,0.237,0.48,0.24c0.295-0.058,0.535-0.301,0.72-0.48c1.476,0.611,3.672,0.04,5.04-0.24
			c0.23,0.87-1.036,0.244-1.2,0.721c-0.28,0.04-0.261,0.379-0.24,0.72c-1.044,0.155-1.807,0.593-2.88,0.72
			c-0.067-0.574,0.286-0.371,0.72-0.479c0.45-0.113,1.386-0.456,1.68-0.721c-0.404-0.652-1.286-0.064-1.92,0
			c-0.647,0.067-1.36-0.236-1.68,0.24c-0.398-0.401-1.409-0.19-2.16-0.24c-0.537,0.104-0.097,1.184-0.24,1.681
			c-0.298-0.119-0.14,0.415-0.24,0.479c-0.144,0.094-0.602-0.119-0.72,0c-0.264,0.266-0.255,1.36-0.72,1.2
			c0.246-0.807-0.747-0.374-1.2-0.479c0.563-1.037,0.326-2.875,0.72-4.08c0.626,0.412-0.338,1.242,0,2.159
			c0.07,0.49,0.649,0.471,0.72,0.96c0.355-0.124,0.605-0.354,0.96-0.479c0.045-1.179-0.266-1.951,0-2.88
			c0.022-0.077,0.424-0.376,0.48-0.48c0.146-0.271,0.095-0.504,0.24-0.72c0.097-0.144,0.361-0.335,0.48-0.479
			c0.741-0.906,1.618-1.918,1.2-3.121c-0.543,0.657-0.917,1.483-1.44,2.16c-1.956,0.764-3.591,1.849-5.28,2.88c0-0.16,0-0.32,0-0.48
			c0.749-0.082,0.969-0.936,1.44-0.96c0.275-0.015,0.109-0.16,0.24-0.24c0.698-0.426,1.602-0.585,2.16-0.96
			c0.918-0.616,1.764-1.483,2.16-2.64c0.477-0.003,0.305-0.655,0.96-0.48c0.037-1.443-0.386-2.5-0.96-2.88
			c-0.368-0.244-0.847-0.215-1.2-0.48c-0.344-0.257-0.658-0.708-0.72-1.2c0.546,0.117,0.746,0.613,1.2,0.96
			c0.502,0.384,1.414,0.702,1.44,1.2c0.014,0.263,0.185,0.124,0.24,0.24c0.218,0.46,0.184,0.666,0.24,1.2
			c0.108,1.024,0.396,2.574,0.48,3.36C36.463,23.617,37.205,23.675,36.96,24.72z M31.44,29.76c-0.186,0.054-0.473,0.007-0.48,0.24
			C31.146,29.946,31.434,29.993,31.44,29.76z M31.92,29.76c-0.066-0.066-0.364,0.116-0.24,0.24
			C31.747,30.066,32.044,29.884,31.92,29.76z"/>
		<path fill-rule="evenodd" clip-rule="evenodd" d="M41.04,16.32c0.106-0.349,0.211,0.024,0.48,0
			C41.46,16.622,41.043,16.562,41.04,16.32z"/>
		<path fill-rule="evenodd" clip-rule="evenodd" d="M96.72,16.8c0.066-0.494,0.895-0.226,0.96-0.72
			C98.374,16.412,97.277,16.929,96.72,16.8z"/>
		<path fill-rule="evenodd" clip-rule="evenodd" d="M92.16,16.56C92.136,16.27,92.509,16.413,92.16,16.56L92.16,16.56z"/>
		<path fill-rule="evenodd" clip-rule="evenodd" d="M9.84,16.56c0.422,0.058,0.547,0.413,0.48,0.96
			C9.898,17.462,9.773,17.107,9.84,16.56z"/>
		<path fill-rule="evenodd" clip-rule="evenodd" d="M92.16,16.56c-0.2,0.76-0.7,1.22-1.2,1.68c0.004-0.876,0.683-1.078,0.96-1.68
			C92,16.56,92.08,16.56,92.16,16.56z"/>
		<path fill-rule="evenodd" clip-rule="evenodd" d="M16.32,17.04c0.014-0.146,0.036-0.284,0.24-0.24
			C16.546,16.946,16.524,17.084,16.32,17.04z"/>
		<path fill-rule="evenodd" clip-rule="evenodd" d="M89.28,20.4c-0.028,1.172,0.129,2.529-0.24,3.36
			c-0.663,0.103-0.226-0.895-0.72-0.96c-0.357,0.204-0.348,0.773-0.48,1.2c-1.044,0.005,0.553-1.457-0.96-1.2
			c0.077-0.556-0.038-0.921-0.24-1.2c0.119-0.758-1.19-0.089-0.96-0.96c0.566-0.587,0.447,0.358,1.2,0.24
			c-0.116,0.756,0.736,0.543,0.48,1.44c0.453-0.054,0.529,0.271,0.96,0.24c0.255-0.869-0.614-1.004-0.721-1.2
			c-0.344-0.634,0.017-1.623-0.96-1.44c0.063-0.703-0.542-0.737-0.479-1.44c-0.861-0.316-0.88,0.016-1.68-0.24c0-0.08,0-0.16,0-0.24
			c-0.272,0.045-0.134,0.241,0,0.24c-0.011,0.33,0.112,0.527,0.239,0.72c-1.087-0.179,0.367,0.659-0.72,0.48
			c0.213,0.507,0.73,0.709,0.72,1.44c-0.871-0.249-0.965-1.275-1.92-1.44c-0.104-0.646-0.9-1.231-0.24-1.92
			c0.432-0.031,0.563,0.238,0.48,0.72c0.507-0.213,0.709-0.731,1.44-0.72c0.279-0.041,0.26-0.379,0.239-0.72
			c0.65,0.06,0.755,0.708,0.96,0.96c0.065,0.08,0.413-0.078,0.48,0c0.114,0.133,0.171,0.594,0.24,0.72
			c0.291,0.53,0.772,1.209,1.199,1.2c0.255,0.693,0.312,1.469,0.48,1.68c0.051,0.064,0.363-0.101,0.24-0.24
			c0.143,0.161,0.365,0.287,0.239,0.72c0.014,0.307,0.308,0.333,0.24,0.72C89.498,22.378,88.582,20.582,89.28,20.4z"/>
		<path fill-rule="evenodd" clip-rule="evenodd" d="M96.48,17.04c0.013-0.146,0.035-0.284,0.239-0.24
			C96.706,16.946,96.685,17.084,96.48,17.04z"/>
		<path fill-rule="evenodd" clip-rule="evenodd" d="M36.24,17.28C35.95,17.304,36.092,16.931,36.24,17.28L36.24,17.28z"/>
		<path fill-rule="evenodd" clip-rule="evenodd" d="M40.08,17.04c0.295,0.104,0.493,0.307,0.48,0.72
			c-0.425-0.055-1.202,0.242-0.96-0.48c0.204-0.044,0.226,0.094,0.24,0.24C40.073,17.513,40.026,17.226,40.08,17.04z"/>
		<path fill-rule="evenodd" clip-rule="evenodd" d="M83.28,17.28c-0.124-0.124,0.173-0.306,0.239-0.24
			C83.645,17.164,83.347,17.346,83.28,17.28z"/>
		<path fill-rule="evenodd" clip-rule="evenodd" d="M96.48,17.04c-0.158,0.322-0.514,0.447-0.961,0.48
			C95.578,17.098,95.933,16.973,96.48,17.04z"/>
		<path fill-rule="evenodd" clip-rule="evenodd" d="M36.24,17.28C36.53,17.256,36.388,17.629,36.24,17.28L36.24,17.28z"/>
		<path fill-rule="evenodd" clip-rule="evenodd" d="M95.52,17.52c-0.098,0.302-0.309,0.491-0.72,0.48
			C94.898,17.698,95.109,17.509,95.52,17.52z"/>
		<path fill-rule="evenodd" clip-rule="evenodd" d="M33.84,18c0.631-0.071,0.189,0.931,0.96,0.72c0.123,1.002-0.134,1.626-0.48,2.16
			c-0.673-0.384,0.337-1.08,0-1.92c-0.281,0.039-0.202,0.438-0.24,0.72C33.421,19.162,34.319,18.578,33.84,18z"/>
		<path fill-rule="evenodd" clip-rule="evenodd" d="M37.92,18.24C37.354,19.012,36.95,17.396,37.92,18.24L37.92,18.24z"/>
		<path fill-rule="evenodd" clip-rule="evenodd" d="M44.64,18C44.665,18.29,44.291,18.147,44.64,18L44.64,18z"/>
		<path fill-rule="evenodd" clip-rule="evenodd" d="M94.56,18.24c0.014-0.146,0.036-0.284,0.24-0.24
			C94.786,18.146,94.764,18.284,94.56,18.24z"/>
		<path fill-rule="evenodd" clip-rule="evenodd" d="M37.2,18.96c-0.459-0.101-1.033-0.087-0.96-0.72
			C36.559,18.481,37.133,18.467,37.2,18.96z"/>
		<path fill-rule="evenodd" clip-rule="evenodd" d="M62.88,18.24c0.233,0.006,0.187,0.293,0.24,0.48
			c0.212,0.394-0.179,0.712-0.24,1.2c-0.086,0.685,0.401,1.964-0.479,1.92C62.688,20.768,62.471,19.191,62.88,18.24z"/>
		<path fill-rule="evenodd" clip-rule="evenodd" d="M90.96,18.24c-0.04,0.68-0.439,1-0.479,1.68
			c-0.625-0.334,0.175-1.242,0.239-1.68C90.8,18.24,90.88,18.24,90.96,18.24z"/>
		<path fill-rule="evenodd" clip-rule="evenodd" d="M94.56,18.24c0.035,0.675-0.587,0.692-1.199,0.72
			C93.385,18.344,94.254,18.574,94.56,18.24z"/>
		<path fill-rule="evenodd" clip-rule="evenodd" d="M85.2,18.96c-0.001-0.133,0.194-0.272,0.24,0
			C85.36,18.96,85.28,18.96,85.2,18.96z"/>
		<path fill-rule="evenodd" clip-rule="evenodd" d="M37.2,18.96c0.459,0.101,1.033,0.087,0.96,0.72
			C37.841,19.439,37.267,19.453,37.2,18.96z"/>
		<path fill-rule="evenodd" clip-rule="evenodd" d="M58.56,19.2C58.27,19.225,58.413,18.851,58.56,19.2L58.56,19.2z"/>
		<path fill-rule="evenodd" clip-rule="evenodd" d="M84.72,18.96c0.16,0,0.32,0,0.48,0c-0.027,0.293-0.072,0.568-0.48,0.48
			C84.72,19.28,84.72,19.12,84.72,18.96z"/>
		<path fill-rule="evenodd" clip-rule="evenodd" d="M85.44,18.96C86.159,19.008,85.211,19.957,85.44,18.96L85.44,18.96z"/>
		<path fill-rule="evenodd" clip-rule="evenodd" d="M38.88,19.44c0.106-0.349,0.211,0.024,0.48,0
			C39.301,19.742,38.883,19.682,38.88,19.44z"/>
		<path fill-rule="evenodd" clip-rule="evenodd" d="M58.56,19.2c0.146,0.013,0.284,0.036,0.24,0.24
			C58.654,19.426,58.516,19.404,58.56,19.2z"/>
		<path fill-rule="evenodd" clip-rule="evenodd" d="M58.8,19.44c0.146,0.014,0.284,0.036,0.24,0.24
			C58.894,19.667,58.756,19.644,58.8,19.44z"/>
		<path fill-rule="evenodd" clip-rule="evenodd" d="M64.08,19.44c0.697,0.559-0.451,1.293-0.24,2.16
			c-0.279-0.039-0.427,0.053-0.479,0.24c-0.554-0.19,0.124-1.128,0.479-1.2C63.764,20.083,63.879,19.719,64.08,19.44z"/>
		<path fill-rule="evenodd" clip-rule="evenodd" d="M57.84,19.92C57.55,19.944,57.692,19.571,57.84,19.92L57.84,19.92z"/>
		<path fill-rule="evenodd" clip-rule="evenodd" d="M59.04,19.68c0.351,0.208,0.761,0.359,0.72,0.96
			C59.409,20.431,59,20.281,59.04,19.68z"/>
		<path fill-rule="evenodd" clip-rule="evenodd" d="M60,19.92C59.71,19.944,59.853,19.571,60,19.92L60,19.92z"/>
		<path fill-rule="evenodd" clip-rule="evenodd" d="M92.88,19.68c1.027,0.045-0.336,1.267-0.72,1.44
			c0.124,0.904,0.303,1.093-0.48,1.44c-0.005,0.565,0.414,0.707,0.24,1.44c-0.472,0.091-0.762-1.391-0.479-1.92
			c0.045-0.085,0.613,0.046,0.479-0.24c-0.046-0.272-0.24-0.133-0.24,0c-0.565-0.581,0.79-1.278,1.2-1.68
			C92.88,20,92.88,19.84,92.88,19.68z"/>
		<path fill-rule="evenodd" clip-rule="evenodd" d="M36.96,19.92c0.591,0.529,1.571,0.669,1.68,1.68
			C38.133,20.987,37.069,20.931,36.96,19.92z"/>
		<path fill-rule="evenodd" clip-rule="evenodd" d="M57.84,19.92C58.13,19.896,57.988,20.269,57.84,19.92L57.84,19.92z"/>
		<path fill-rule="evenodd" clip-rule="evenodd" d="M60,19.92C60.719,19.968,59.771,20.917,60,19.92L60,19.92z"/>
		<path fill-rule="evenodd" clip-rule="evenodd" d="M89.28,20.4C89.051,19.403,89.999,20.352,89.28,20.4L89.28,20.4z"/>
		<path fill-rule="evenodd" clip-rule="evenodd" d="M38.64,20.4c0.098-0.598,0.93-0.014,0.72,0.48
			C39.045,20.795,38.982,20.458,38.64,20.4z"/>
		<path fill-rule="evenodd" clip-rule="evenodd" d="M90,20.16c0.332,0.117,0.582,2.164-0.24,1.92C89.59,21.19,90.17,21.05,90,20.16z
			"/>
		<path fill-rule="evenodd" clip-rule="evenodd" d="M56.88,20.88c-0.377-0.023-0.832,0.032-0.72-0.48
			C56.443,20.517,56.704,20.656,56.88,20.88z"/>
		<path fill-rule="evenodd" clip-rule="evenodd" d="M58.56,20.64c-0.124-0.125,0.173-0.307,0.24-0.24
			C58.924,20.524,58.626,20.707,58.56,20.64z"/>
		<path fill-rule="evenodd" clip-rule="evenodd" d="M68.88,20.4c0.896-0.256,0.685,0.596,1.44,0.48
			c-0.171,0.599,1.056,0.986,0.239,1.44c-0.271-0.449-0.283-1.156-1.199-0.96C69.535,20.705,68.883,20.877,68.88,20.4z"/>
		<path fill-rule="evenodd" clip-rule="evenodd" d="M88.56,20.64c-0.124-0.125,0.174-0.307,0.24-0.24
			C88.924,20.524,88.626,20.707,88.56,20.64z"/>
		<path fill-rule="evenodd" clip-rule="evenodd" d="M79.92,20.88c0.007-0.233,0.294-0.186,0.48-0.24
			C80.394,20.874,80.106,20.826,79.92,20.88z"/>
		<path fill-rule="evenodd" clip-rule="evenodd" d="M50.16,22.32c-0.56,0-1.12,0-1.68,0c0.128-1.072,1.57-1.839,2.64-1.2
			c-0.181,0.619-1.775-0.175-1.68,0.72C49.444,22.236,50.105,21.974,50.16,22.32z"/>
		<path fill-rule="evenodd" clip-rule="evenodd" d="M56.88,20.88C58.153,20.62,57.164,21.609,56.88,20.88L56.88,20.88z"/>
		<path fill-rule="evenodd" clip-rule="evenodd" d="M80.88,21.12c-0.124-0.124,0.174-0.307,0.24-0.24
			C81.244,21.004,80.946,21.187,80.88,21.12z"/>
		<path fill-rule="evenodd" clip-rule="evenodd" d="M84.72,20.88c0.146,0.014,0.284,0.036,0.24,0.24
			C84.813,21.106,84.676,21.084,84.72,20.88z"/>
		<path fill-rule="evenodd" clip-rule="evenodd" d="M59.28,21.36c0.06-0.302,0.478-0.242,0.48,0
			C59.654,21.709,59.549,21.335,59.28,21.36z"/>
		<path fill-rule="evenodd" clip-rule="evenodd" d="M84.96,21.12c0.146,0.014,0.284,0.036,0.24,0.24
			C85.054,21.346,84.916,21.324,84.96,21.12z"/>
		<path fill-rule="evenodd" clip-rule="evenodd" d="M78.96,21.6c0.284-0.646,1.251,0.001,1.68,0
			C80.356,22.246,79.389,21.599,78.96,21.6z"/>
		<path fill-rule="evenodd" clip-rule="evenodd" d="M85.2,21.36c0.302,0.099,0.49,0.31,0.479,0.72
			C85.378,21.981,85.189,21.771,85.2,21.36z"/>
		<path fill-rule="evenodd" clip-rule="evenodd" d="M18,21.6c0.186,0.054,0.474,0.006,0.48,0.24
			C18.294,21.786,18.007,21.833,18,21.6z"/>
		<path fill-rule="evenodd" clip-rule="evenodd" d="M33.6,21.84C33.576,21.55,33.949,21.692,33.6,21.84L33.6,21.84z"/>
		<path fill-rule="evenodd" clip-rule="evenodd" d="M58.56,21.84c-0.124-0.124,0.173-0.306,0.24-0.24
			C58.924,21.724,58.626,21.906,58.56,21.84z"/>
		<path fill-rule="evenodd" clip-rule="evenodd" d="M64.08,21.84c0.014-0.146,0.036-0.284,0.24-0.24
			C64.307,21.747,64.284,21.884,64.08,21.84z"/>
		<path fill-rule="evenodd" clip-rule="evenodd" d="M72.96,22.08C72.241,22.032,73.189,21.083,72.96,22.08L72.96,22.08z"/>
		<path fill-rule="evenodd" clip-rule="evenodd" d="M111.6,23.76c-0.646-0.112-0.973-0.299-1.199-0.48
			c-0.049-0.039-0.192,0.04-0.24,0c-0.08-0.065,0.078-0.413,0-0.48c-0.088-0.076-0.371,0.049-0.48,0
			c-0.081-0.037-0.145-0.422-0.239-0.48c-0.102-0.062-0.987-0.24-0.96-0.24c-0.641,0.001-1.667,0.82-2.16,1.2
			c-0.133-0.379,0.199-0.96,0.479-1.2c0.276-0.235,0.513-0.143,0.96-0.24c0.205-0.044,0.311-0.231,0.48-0.24
			c1.289-0.069,2.57,1.564,3.359,1.92C111.6,23.6,111.6,23.68,111.6,23.76z"/>
		<path fill-rule="evenodd" clip-rule="evenodd" d="M18.48,21.84c0.282,0.038,0.681-0.041,0.72,0.24
			C18.917,22.042,18.519,22.121,18.48,21.84z"/>
		<path fill-rule="evenodd" clip-rule="evenodd" d="M33.36,22.08c0.014-0.146,0.036-0.284,0.24-0.24
			C33.586,21.986,33.564,22.124,33.36,22.08z"/>
		<path fill-rule="evenodd" clip-rule="evenodd" d="M39.6,22.32C38.655,22.252,39.645,21.263,39.6,22.32L39.6,22.32z"/>
		<path fill-rule="evenodd" clip-rule="evenodd" d="M59.28,21.84c0.24,0,0.48,0,0.72,0c0.12,0.543,1.177,0.525,0.48,1.2
			c-0.646,0.165-0.464-0.496-0.72-0.72C59.352,22.408,59.307,22.133,59.28,21.84z"/>
		<path fill-rule="evenodd" clip-rule="evenodd" d="M64.08,21.84c0,0.08,0,0.16,0,0.24c0.349,0.131,1.24-0.28,1.2,0.24
			c-0.284,0.117-0.544,0.256-0.721,0.48c-0.945-0.146-1.063,0.537-1.199,1.2c-0.241,0.001-0.286-0.194-0.48-0.24
			c0,0.32,0,0.641,0,0.96c-0.758-0.117-0.848,0.433-1.68,0.24c-0.139-0.512-0.826-1.307,0-1.44c0.356,0.704-0.271,0.891,0.48,1.2
			c0.22-0.687,0.896-0.762,0.72-1.68c-0.008-0.04-0.391-0.016-0.24-0.24c0.08,0,0.16,0,0.24,0c0.116-0.283,0.256-0.544,0.479-0.72
			C63.437,22.157,63.802,22.042,64.08,21.84z M62.64,23.52c0.16,0,0.32,0,0.48,0c-0.001-0.241,0.194-0.286,0.24-0.48
			c-0.308-0.013-0.333-0.308-0.721-0.24C62.64,23.04,62.64,23.28,62.64,23.52z"/>
		<path fill-rule="evenodd" clip-rule="evenodd" d="M33.36,22.08C33.384,22.37,33.011,22.228,33.36,22.08L33.36,22.08z"/>
		<path fill-rule="evenodd" clip-rule="evenodd" d="M72.96,22.08c0.146,0.014,0.284,0.036,0.24,0.24
			C73.054,22.307,72.916,22.284,72.96,22.08z"/>
		<path fill-rule="evenodd" clip-rule="evenodd" d="M27.84,22.8c-0.103,0.537-1.183,0.098-1.68,0.24
			c0.127-0.193,0.25-0.39,0.24-0.72c0.292,0.079,0.677-0.103,0.96,0C27.609,22.411,27.532,22.773,27.84,22.8z"/>
		<path fill-rule="evenodd" clip-rule="evenodd" d="M39.6,22.32c0.843-0.042,0.789,0.811,1.44,0.96
			C40.563,23.896,39.905,22.671,39.6,22.32z"/>
		<path fill-rule="evenodd" clip-rule="evenodd" d="M41.04,22.56C40.75,22.584,40.893,22.211,41.04,22.56L41.04,22.56z"/>
		<path fill-rule="evenodd" clip-rule="evenodd" d="M50.16,22.32c0.186,0.054,0.473,0.007,0.48,0.24
			C50.454,22.506,50.167,22.553,50.16,22.32z"/>
		<path fill-rule="evenodd" clip-rule="evenodd" d="M58.8,22.56c-0.176,0.633-0.81,0.083-1.2,0c-0.085-0.018-0.683,0.062-0.72,0
			C56.573,22.054,58.606,22.537,58.8,22.56z"/>
		<path fill-rule="evenodd" clip-rule="evenodd" d="M62.16,22.8c-0.359-0.041-0.886,0.086-0.96-0.24
			C61.801,22.53,61.951,22.102,62.16,22.8z"/>
		<path fill-rule="evenodd" clip-rule="evenodd" d="M73.2,22.32C73.49,22.295,73.348,22.669,73.2,22.32L73.2,22.32z"/>
		<path fill-rule="evenodd" clip-rule="evenodd" d="M85.68,22.56c-0.124-0.124,0.174-0.307,0.24-0.24
			C86.044,22.444,85.746,22.626,85.68,22.56z"/>
		<path fill-rule="evenodd" clip-rule="evenodd" d="M41.04,22.56c0.146,0.014,0.284,0.036,0.24,0.24
			C41.134,22.787,40.996,22.764,41.04,22.56z"/>
		<path fill-rule="evenodd" clip-rule="evenodd" d="M70.8,22.8c0.342-0.687,1.396,0.558,0.72,0.96
			C71.026,23.694,71.294,22.866,70.8,22.8z"/>
		<path fill-rule="evenodd" clip-rule="evenodd" d="M81.12,23.04c-0.72,0-1.44,0-2.16,0C79.045,22.568,81.149,22.087,81.12,23.04z"
			/>
		<path fill-rule="evenodd" clip-rule="evenodd" d="M41.28,22.8C41.57,22.775,41.428,23.149,41.28,22.8L41.28,22.8z"/>
		<path fill-rule="evenodd" clip-rule="evenodd" d="M59.28,23.04c-0.124-0.124,0.174-0.307,0.24-0.24
			C59.644,22.924,59.346,23.106,59.28,23.04z"/>
		<path fill-rule="evenodd" clip-rule="evenodd" d="M64.56,22.8c0.421,0.242,1.288,0.415,0.721,0.96
			c0.84-0.04,1.536,0.064,1.92,0.48c-0.654,0.419-1.715-0.415-2.88-0.24c-0.478,0.003-0.306,0.655-0.96,0.48c0-0.16,0-0.32,0-0.48
			c0.771,0.21,0.497-0.623,0.96-0.72C64.507,23.227,64.599,23.079,64.56,22.8z"/>
		<path fill-rule="evenodd" clip-rule="evenodd" d="M106.32,23.28c-0.249,0.777-0.059,1.194-0.24,1.92
			c-0.161,0.644-0.055,0.23,0,0.96c0.031,0.417-0.063,0.747-0.24,0.96c-0.723-0.317-0.875-1.205-1.2-1.92
			c-0.654,0.175-0.482-0.478-0.96-0.48c-0.857,0.103-1.317,0.604-1.68,1.2c-0.304,0.807,0.939,1.27,0.24,1.68
			c-0.805-0.075-0.673-1.087-0.721-1.92c0.188-0.053,0.279-0.2,0.24-0.479c0.573-0.548,1.468-0.773,2.4-0.96
			c0.387,0.332,0.76,0.68,1.2,0.96C105.808,24.688,105.686,23.606,106.32,23.28z"/>
		<path fill-rule="evenodd" clip-rule="evenodd" d="M26.64,23.76c0.103-0.537,1.183-0.097,1.68-0.24
			C28.192,24.341,27.164,23.887,26.64,23.76z"/>
		<path fill-rule="evenodd" clip-rule="evenodd" d="M47.76,23.52C47.784,23.81,47.411,23.667,47.76,23.52L47.76,23.52z"/>
		<path fill-rule="evenodd" clip-rule="evenodd" d="M59.76,23.52c-0.181,0.926-0.382,1.379,0.72,1.44
			c-0.595,0.605-0.776,1.624-1.92,1.68c0.104-0.295,0.307-0.492,0.72-0.479c-0.175-0.655,0.477-0.483,0.48-0.96
			c-1.572-0.052-2.219,0.82-3.84,0.72c0.5-0.783,2.136-0.616,3.12-0.96c0.112-0.512-0.343-0.457-0.72-0.479
			c0.039-0.279-0.053-0.428-0.24-0.48C58.113,23.313,59.081,23.561,59.76,23.52z M59.04,23.76c-0.187,0.054-0.474,0.007-0.48,0.24
			C58.746,23.946,59.033,23.993,59.04,23.76z"/>
		<path fill-rule="evenodd" clip-rule="evenodd" d="M111.6,23.76c0.187,0.054,0.474,0.007,0.48,0.24
			C111.894,23.946,111.606,23.993,111.6,23.76z"/>
		<path fill-rule="evenodd" clip-rule="evenodd" d="M60.24,24.24c-0.125-0.124,0.173-0.307,0.24-0.24
			C60.604,24.124,60.307,24.307,60.24,24.24z"/>
		<path fill-rule="evenodd" clip-rule="evenodd" d="M88.08,24C89.18,24.16,87.887,25.453,88.08,24L88.08,24z"/>
		<path fill-rule="evenodd" clip-rule="evenodd" d="M112.08,24c0.282,0.037,0.682-0.041,0.72,0.24
			C112.518,24.202,112.119,24.281,112.08,24z"/>
		<path fill-rule="evenodd" clip-rule="evenodd" d="M47.28,24.24c0.894,0.193,0.047,1.465-0.72,1.439
			c0.067-0.547-0.058-0.902-0.48-0.96c-0.172-0.389,1.132-0.389,0.96,0C47.273,24.714,47.226,24.426,47.28,24.24z"/>
		<path fill-rule="evenodd" clip-rule="evenodd" d="M108,24.72c-0.124-0.124,0.174-0.306,0.24-0.239
			C108.364,24.604,108.066,24.786,108,24.72z"/>
		<path fill-rule="evenodd" clip-rule="evenodd" d="M32.4,24.96c-0.124-0.124,0.174-0.307,0.24-0.24
			C32.764,24.844,32.466,25.026,32.4,24.96z"/>
		<path fill-rule="evenodd" clip-rule="evenodd" d="M64.32,25.2c0.022-0.208,0.459-0.298,0.72-0.24
			c-0.153-0.034,0.532,0.345,0.479,0.24C65.741,25.642,64.794,25.355,64.32,25.2z"/>
		<path fill-rule="evenodd" clip-rule="evenodd" d="M63.12,27.12c-0.338-0.063-0.273-0.526-0.48-0.72
			c-0.028-0.691-1.023-0.417-0.959-1.2C62.594,25.406,63.063,26.057,63.12,27.12z"/>
		<path fill-rule="evenodd" clip-rule="evenodd" d="M63.12,25.44C62.83,25.465,62.973,25.091,63.12,25.44L63.12,25.44z"/>
		<path fill-rule="evenodd" clip-rule="evenodd" d="M63.84,25.44c0.106-0.35,0.211,0.024,0.48,0
			C64.261,25.742,63.843,25.682,63.84,25.44z"/>
		<path fill-rule="evenodd" clip-rule="evenodd" d="M63.12,25.44c0.319,0.24,0.725,0.396,0.96,0.72
			c-0.188,0.053-0.279,0.201-0.24,0.479C63.366,26.474,63.2,26,63.12,25.44z"/>
		<path fill-rule="evenodd" clip-rule="evenodd" d="M106.8,25.68c0.046-0.272,0.241-0.133,0.24,0
			C106.994,25.952,106.799,25.813,106.8,25.68z"/>
		<path fill-rule="evenodd" clip-rule="evenodd" d="M107.76,25.68c-0.124-0.124,0.174-0.306,0.24-0.239
			C108.124,25.564,107.826,25.746,107.76,25.68z"/>
		<path fill-rule="evenodd" clip-rule="evenodd" d="M108.72,25.68C108.695,25.39,109.069,25.532,108.72,25.68L108.72,25.68z"/>
		<path fill-rule="evenodd" clip-rule="evenodd" d="M28.56,25.92c-0.766,0.034-0.712,0.888-1.44,0.96
			c-0.053-0.187-0.201-0.279-0.48-0.24c0.271-0.688,1.029-0.891,1.92-0.96C28.56,25.76,28.56,25.84,28.56,25.92z"/>
		<path fill-rule="evenodd" clip-rule="evenodd" d="M43.2,25.92C42.91,25.944,43.052,25.571,43.2,25.92L43.2,25.92z"/>
		<path fill-rule="evenodd" clip-rule="evenodd" d="M60.48,25.92c0.039-0.281,0.438-0.202,0.72-0.24
			c-0.022,0.655,0.399,0.483,0,0.96C60.625,26.735,61.333,25.547,60.48,25.92z"/>
		<path fill-rule="evenodd" clip-rule="evenodd" d="M108.72,25.68c0.068,0.628-0.087,1.032-0.72,0.96
			C108.24,26.32,108.396,25.916,108.72,25.68z"/>
		<path fill-rule="evenodd" clip-rule="evenodd" d="M107.52,26.64C107.26,25.367,108.249,26.356,107.52,26.64L107.52,26.64z"/>
		<path fill-rule="evenodd" clip-rule="evenodd" d="M26.4,26.64c-0.704,0.017-0.891,0.549-1.2,0.96
			C24.501,27.326,26.359,25.418,26.4,26.64z"/>
		<path fill-rule="evenodd" clip-rule="evenodd" d="M28.56,26.4C28.584,26.69,28.211,26.548,28.56,26.4L28.56,26.4z"/>
		<path fill-rule="evenodd" clip-rule="evenodd" d="M61.92,26.64c0.046-0.272,0.241-0.133,0.24,0
			C62.114,26.912,61.919,26.773,61.92,26.64z"/>
		<path fill-rule="evenodd" clip-rule="evenodd" d="M112.08,26.64c-0.124-0.124,0.174-0.306,0.24-0.239
			C112.444,26.524,112.146,26.706,112.08,26.64z"/>
		<path fill-rule="evenodd" clip-rule="evenodd" d="M26.4,26.88c0-0.08,0-0.16,0-0.24c0.08,0,0.16,0,0.24,0
			C26.626,26.786,26.604,26.924,26.4,26.88z"/>
		<path fill-rule="evenodd" clip-rule="evenodd" d="M48,26.88C47.976,26.59,48.349,26.732,48,26.88L48,26.88z"/>
		<path fill-rule="evenodd" clip-rule="evenodd" d="M58.08,26.88C58.056,26.59,58.429,26.732,58.08,26.88L58.08,26.88z"/>
		<path fill-rule="evenodd" clip-rule="evenodd" d="M107.52,26.64C107.75,27.637,106.801,26.688,107.52,26.64L107.52,26.64z"/>
		<path fill-rule="evenodd" clip-rule="evenodd" d="M26.4,26.88c-0.226,0.975-1.115,1.285-1.44,2.16
			c-0.18-0.014-0.24-0.036-0.24-0.24c0-0.26,0.197-0.136,0.24-0.24C25.271,27.793,25.858,27.175,26.4,26.88z"/>
		<path fill-rule="evenodd" clip-rule="evenodd" d="M27.12,26.88C27.145,27.17,26.771,27.027,27.12,26.88L27.12,26.88z"/>
		<path fill-rule="evenodd" clip-rule="evenodd" d="M47.76,27.12c0.014-0.146,0.036-0.284,0.24-0.24
			C47.986,27.026,47.964,27.164,47.76,27.12z"/>
		<path fill-rule="evenodd" clip-rule="evenodd" d="M58.08,26.88c-0.003,0.317-0.421,0.22-0.48,0.48
			C56.936,27.257,57.587,26.605,58.08,26.88z"/>
		<path fill-rule="evenodd" clip-rule="evenodd" d="M45.84,27.36c-0.124-0.124,0.174-0.307,0.24-0.24
			C46.204,27.244,45.906,27.427,45.84,27.36z"/>
		<path fill-rule="evenodd" clip-rule="evenodd" d="M47.52,27.36c0.014-0.146,0.036-0.284,0.24-0.24
			C47.747,27.267,47.724,27.404,47.52,27.36z"/>
		<path fill-rule="evenodd" clip-rule="evenodd" d="M63.12,27.12c0.371,0.349,0.504,0.936,0.479,1.68
			C63.111,28.568,63.082,27.878,63.12,27.12z"/>
		<path fill-rule="evenodd" clip-rule="evenodd" d="M26.64,27.6C26.616,27.31,26.989,27.452,26.64,27.6L26.64,27.6z"/>
		<path fill-rule="evenodd" clip-rule="evenodd" d="M31.68,30.96c0.098,0.578-0.438,0.521-0.24,1.2c-0.72,0-1.44,0-2.16,0
			c-0.046-0.704,0.064-1.242,0-1.68c-0.099-0.674-0.75-1.018-0.48-1.921c-0.272-0.54-0.489,0.284-0.72,0.48
			c-0.383,0.325-0.732,0.741-1.2,0.72c0.052-0.56,0.634-1.098,0.96-1.439c0.401-0.42,0.678-1.235,1.68-0.96
			c0.275,0.995-0.505,0.935-0.48,1.68c-0.113,0.754,0.646,0.634,0.72,1.2c0.199,0.678-0.338,0.621-0.24,1.2
			c-0.001,0.24,0.194,0.285,0.24,0.479C30.975,32.175,30.971,31.211,31.68,30.96z"/>
		<path fill-rule="evenodd" clip-rule="evenodd" d="M47.28,27.6c0.014-0.146,0.036-0.284,0.24-0.239
			C47.506,27.507,47.484,27.645,47.28,27.6z"/>
		<path fill-rule="evenodd" clip-rule="evenodd" d="M48.24,27.6C48.216,27.31,48.589,27.452,48.24,27.6L48.24,27.6z"/>
		<path fill-rule="evenodd" clip-rule="evenodd" d="M61.44,27.84C61.21,26.843,62.159,27.792,61.44,27.84L61.44,27.84z"/>
		<path fill-rule="evenodd" clip-rule="evenodd" d="M62.16,27.6c0.046-0.272,0.24-0.133,0.24,0
			C62.354,27.872,62.159,27.733,62.16,27.6z"/>
		<path fill-rule="evenodd" clip-rule="evenodd" d="M26.64,27.6C26.665,27.89,26.291,27.748,26.64,27.6L26.64,27.6z"/>
		<path fill-rule="evenodd" clip-rule="evenodd" d="M46.8,27.84c0.053-0.187,0.201-0.279,0.48-0.24
			C47.227,27.787,47.079,27.879,46.8,27.84z"/>
		<path fill-rule="evenodd" clip-rule="evenodd" d="M48.24,27.6C48.264,27.89,47.891,27.748,48.24,27.6L48.24,27.6z"/>
		<path fill-rule="evenodd" clip-rule="evenodd" d="M45.6,28.08c-0.124-0.124,0.173-0.307,0.24-0.24
			C45.964,27.964,45.667,28.146,45.6,28.08z"/>
		<path fill-rule="evenodd" clip-rule="evenodd" d="M46.8,27.84C46.824,28.13,46.451,27.987,46.8,27.84L46.8,27.84z"/>
		<path fill-rule="evenodd" clip-rule="evenodd" d="M61.44,27.84c-0.131,0.349,0.281,1.24-0.24,1.2
			C61.331,28.691,60.919,27.8,61.44,27.84z"/>
		<path fill-rule="evenodd" clip-rule="evenodd" d="M35.76,28.08c-0.084,0.315-0.422,0.377-0.48,0.72
			C34.682,28.702,35.266,27.869,35.76,28.08z"/>
		<path fill-rule="evenodd" clip-rule="evenodd" d="M62.16,28.32c0.046-0.272,0.24-0.134,0.24,0
			C62.354,28.593,62.159,28.453,62.16,28.32z"/>
		<path fill-rule="evenodd" clip-rule="evenodd" d="M102.96,28.32C101.963,28.55,102.911,27.602,102.96,28.32L102.96,28.32z"/>
		<path fill-rule="evenodd" clip-rule="evenodd" d="M88.08,28.56C88.056,28.27,88.429,28.412,88.08,28.56L88.08,28.56z"/>
		<path fill-rule="evenodd" clip-rule="evenodd" d="M102.96,28.32c0.187,0.054,0.474,0.006,0.48,0.239
			C103.254,28.506,102.967,28.554,102.96,28.32z"/>
		<path fill-rule="evenodd" clip-rule="evenodd" d="M69.36,31.92c0.073-0.727,0.742-0.857,0.479-1.92
			c-0.061-0.613-1.271-1.12-1.439-0.24c0.177,0.383,1.175-0.055,0.96,0.721c-0.22,0.98-0.736,1.664-1.681,1.92
			c0-0.801,0.781-0.819,0.721-1.681c-0.331-0.309-0.238-1.042-0.24-1.68c0.457-0.103,0.603-0.517,1.2-0.48
			c0.597,0.329,1.122,1.244,0.96,2.16C70.223,31.269,69.797,31.727,69.36,31.92z"/>
		<path fill-rule="evenodd" clip-rule="evenodd" d="M88.08,28.56C88.104,28.85,87.731,28.708,88.08,28.56L88.08,28.56z"/>
		<path fill-rule="evenodd" clip-rule="evenodd" d="M98.4,34.08c-0.755-0.425-0.321-1.27-0.48-1.92
			c-0.232-0.954-1.034-1.87-0.72-3.12c1.202-1.04,3.885-0.273,5.28,0c-0.129,0.67-0.819,0.032-1.2,0
			c-1.352-0.113-3.148-0.182-3.84,0.479c-0.098,1.218,0.838,1.402,1.199,2.16C98.72,32.64,98.212,33.012,98.4,34.08z"/>
		<path fill-rule="evenodd" clip-rule="evenodd" d="M103.44,28.56c0.781,0.025,0.808,0.341,0.96,0.721
			c0.164,0.41,0.938,0.551,0.72,0.96c-0.562,0.074-0.991,0.47-1.44,0c-0.399,0-0.8,0-1.199,0c-0.35-0.132-1.241,0.28-1.2-0.24
			c0.96,0,1.92,0,2.88,0c-0.058-0.422-0.413-0.547-0.96-0.48C103.275,29.195,103.542,29.062,103.44,28.56z"/>
		<path fill-rule="evenodd" clip-rule="evenodd" d="M23.04,28.8c0.496,0.206,0.253,1.671,0,1.92
			C22.33,30.3,23.179,29.441,23.04,28.8z"/>
		<path fill-rule="evenodd" clip-rule="evenodd" d="M63.84,29.76C63.55,29.784,63.692,29.411,63.84,29.76L63.84,29.76z"/>
		<path fill-rule="evenodd" clip-rule="evenodd" d="M106.56,29.52c1.089,0.062-0.044,1.376-0.72,1.2
			C105.66,29.9,106.815,30.415,106.56,29.52z"/>
		<path fill-rule="evenodd" clip-rule="evenodd" d="M48.48,30.96C47.572,30.608,48.582,29.598,48.48,30.96L48.48,30.96z"/>
		<path fill-rule="evenodd" clip-rule="evenodd" d="M62.88,30.48c0.046-0.272,0.241-0.134,0.24,0
			C63.074,30.752,62.879,30.613,62.88,30.48z"/>
		<path fill-rule="evenodd" clip-rule="evenodd" d="M63.84,30.48C63.55,30.504,63.692,30.131,63.84,30.48L63.84,30.48z"/>
		<path fill-rule="evenodd" clip-rule="evenodd" d="M62.16,30.72c0.007-0.233,0.294-0.186,0.479-0.239
			C62.634,30.714,62.347,30.666,62.16,30.72z"/>
		<path fill-rule="evenodd" clip-rule="evenodd" d="M90.24,30.72c0.106-0.349,0.211,0.024,0.479,0
			C90.66,31.021,90.243,30.962,90.24,30.72z"/>
		<path fill-rule="evenodd" clip-rule="evenodd" d="M103.68,31.68c-0.064-0.243,0.138-0.157,0.24-0.239
			c0.36-0.291,0.625-0.685,1.2-0.721C105.111,31.512,104.438,31.638,103.68,31.68z"/>
		<path fill-rule="evenodd" clip-rule="evenodd" d="M101.52,31.2c0.039-0.281,0.438-0.202,0.721-0.24
			C102.201,31.241,101.803,31.162,101.52,31.2z"/>
		<path fill-rule="evenodd" clip-rule="evenodd" d="M110.88,31.44c0.104,0.18-0.836,0.391-0.96,0.239
			c-0.016-0.02,0.02-0.234,0-0.239c-0.086-0.021-0.682,0.063-0.72,0c-0.13-0.218,0.754-0.273,0.96-0.24
			c-0.04-0.007,0.134,0.213,0.24,0.24C110.551,31.478,110.728,31.411,110.88,31.44z"/>
		<path fill-rule="evenodd" clip-rule="evenodd" d="M91.2,33.12c-0.885-0.155-1.259-0.821-1.44-1.68
			c0.775-0.201,0.58,0.579,0.721,0.72c0.069,0.069,0.426-0.078,0.479,0C91.154,32.443,91.043,32.818,91.2,33.12z"/>
		<path fill-rule="evenodd" clip-rule="evenodd" d="M92.16,31.44c0.001,0.133-0.194,0.272-0.24,0C92,31.44,92.08,31.44,92.16,31.44z
			"/>
		<path fill-rule="evenodd" clip-rule="evenodd" d="M103.68,31.68c-0.139,0.582-0.906,0.534-1.439,0.721
			C102.379,31.818,103.146,31.866,103.68,31.68z"/>
		<path fill-rule="evenodd" clip-rule="evenodd" d="M69.36,31.92c-0.239,0.882-0.801,1.439-0.96,2.4
			c0.791-0.108,1.895-0.967,1.92-1.44c0.018-0.342,0.287-0.083,0.479-0.24c0.194-0.159,0.028-0.807,0.48-0.72
			c-0.194,0.887-0.492,1.227-0.96,1.68c-0.669,0.648-1.335,0.766-1.92,1.2c-0.268,0.199-0.361,0.928-0.721,0.48
			C67.679,33.599,68.334,32.574,69.36,31.92z"/>
		<path fill-rule="evenodd" clip-rule="evenodd" d="M108.96,31.92c0.547-0.067,0.902,0.058,0.96,0.48
			c-0.454,0.054-0.529-0.271-0.96-0.24C108.96,32.08,108.96,32,108.96,31.92z"/>
		<path fill-rule="evenodd" clip-rule="evenodd" d="M89.76,33.12c-0.33,0.011-0.526-0.113-0.72-0.24
			c-0.004-0.396-0.666-0.134-0.72-0.479c0.24,0,0.285-0.194,0.479-0.24C89.223,32.377,89.543,32.697,89.76,33.12z"/>
		<path fill-rule="evenodd" clip-rule="evenodd" d="M87.6,32.64c0.003-0.242,0.421-0.302,0.48,0C87.92,32.64,87.76,32.64,87.6,32.64
			z"/>
		<path fill-rule="evenodd" clip-rule="evenodd" d="M109.92,32.4c1.01,0.03,1.15,0.93,2.16,0.96c-0.36,0.279-0.587,0.692-1.2,0.72
			c0.135-0.203-0.229-0.211-0.24-0.24c-0.056-0.147,0.215-0.549,0.24-0.479C110.675,32.803,109.959,32.88,109.92,32.4z"/>
		<path fill-rule="evenodd" clip-rule="evenodd" d="M67.2,33.12C67.176,32.83,67.549,32.973,67.2,33.12L67.2,33.12z"/>
		<path fill-rule="evenodd" clip-rule="evenodd" d="M67.2,33.12c-0.276,0.672-0.276,1.247,0,1.92
			c-0.608,0.272-0.696,1.063-0.72,1.92c-0.527,0.273-0.981,0.619-1.921,0.48c0.389-0.492,1.155-0.605,1.681-0.96
			C66.604,35.403,66.238,33.599,67.2,33.12z"/>
		<path fill-rule="evenodd" clip-rule="evenodd" d="M91.2,33.12c0.459,0.101,1.033,0.087,0.96,0.72
			c-0.655,0.175-0.483-0.477-0.96-0.479C91.2,33.28,91.2,33.2,91.2,33.12z"/>
		<path fill-rule="evenodd" clip-rule="evenodd" d="M98.64,34.32c0.447,0.032,0.803,0.157,0.96,0.479
			c0.772-0.253,1.689-0.677,1.92-0.96c0.058-0.07,0.394,0.041,0.48,0c0.03-0.014-0.023-0.212,0-0.24c0.06-0.072,0.393,0.047,0.48,0
			c0.285-0.15,0.429-0.836,0.96-0.479c0.087,0.542-0.851,0.59-1.44,0.96c-0.074,0.046-0.179,0.405-0.24,0.479
			c-0.062,0.076-0.392-0.052-0.479,0c-0.19,0.113-0.429,0.449-0.721,0.48c-0.741,0.078-1.06-0.069-1.199-0.24
			C99.197,34.602,98.365,34.965,98.64,34.32z"/>
		<path fill-rule="evenodd" clip-rule="evenodd" d="M90.72,33.84c0.27,0.051,0.374,0.267,0.48,0.48
			C90.907,34.293,90.632,34.248,90.72,33.84z"/>
		<path fill-rule="evenodd" clip-rule="evenodd" d="M92.16,33.84c1.354-0.146,2.126,0.633,2.64,0.96
			c0.323,0.206,0.75,0.469,0.96,0.48c0.237,0.013,0.156,0.212,0.24,0.239c0.441,0.147,0.989-0.205,1.44,0.24
			c-0.444,0.733-1.141-0.276-1.921,0c-0.834-0.915-2.034-1.34-3.359-1.68C92.141,34.075,92.176,33.86,92.16,33.84z"/>
		<path fill-rule="evenodd" clip-rule="evenodd" d="M98.4,34.08c0.146,0.014,0.284,0.036,0.239,0.24
			C98.493,34.307,98.355,34.284,98.4,34.08z"/>
		<path fill-rule="evenodd" clip-rule="evenodd" d="M24.48,34.56C24.19,34.584,24.333,34.211,24.48,34.56L24.48,34.56z"/>
		<path fill-rule="evenodd" clip-rule="evenodd" d="M91.2,34.32c0.146,0.014,0.284,0.035,0.24,0.239
			C91.294,34.547,91.156,34.524,91.2,34.32z"/>
		<path fill-rule="evenodd" clip-rule="evenodd" d="M24.48,34.56C24.77,34.535,24.627,34.909,24.48,34.56L24.48,34.56z"/>
		<path fill-rule="evenodd" clip-rule="evenodd" d="M91.44,34.56c0.928-0.208,1.038,0.402,1.439,0.721
			C92.068,35.371,91.856,34.864,91.44,34.56z"/>
		<path fill-rule="evenodd" clip-rule="evenodd" d="M24.72,35.28c-0.125-0.124,0.173-0.307,0.24-0.24
			C25.084,35.164,24.787,35.347,24.72,35.28z"/>
		<path fill-rule="evenodd" clip-rule="evenodd" d="M77.76,35.04c-0.024,0.678-0.904,1.02-0.24,1.68
			c-0.693-0.105-1.094-0.506-1.199-1.2C76.627,35.187,77.453,35.373,77.76,35.04z"/>
		<path fill-rule="evenodd" clip-rule="evenodd" d="M93.6,35.76c-0.124-0.124,0.174-0.307,0.24-0.24
			C93.964,35.645,93.666,35.826,93.6,35.76z"/>
		<path fill-rule="evenodd" clip-rule="evenodd" d="M98.88,36.72C98.59,36.744,98.732,36.371,98.88,36.72L98.88,36.72z"/>
		<path fill-rule="evenodd" clip-rule="evenodd" d="M70.8,36.96c-0.358-0.041-0.886,0.086-0.96-0.24
			C70.199,36.761,70.726,36.635,70.8,36.96z"/>
		<path fill-rule="evenodd" clip-rule="evenodd" d="M72.72,36.72C73.01,36.695,72.867,37.069,72.72,36.72L72.72,36.72z"/>
	</g>
</g>
</svg>
